<?xml version="1.0" standalone="no"?>
<!DOCTYPE svg PUBLIC "-//W3C//DTD SVG 20010904//EN"
 "http://www.w3.org/TR/2001/REC-SVG-20010904/DTD/svg10.dtd">
<svg version="1.0" xmlns="http://www.w3.org/2000/svg"
 width="3289.000000pt" height="3289.000000pt" viewBox="0 0 3289.000000 3289.000000"
 preserveAspectRatio="xMidYMid meet">
<metadata>
Created by potrace 1.14, written by Peter Selinger 2001-2017
</metadata>
<g transform="translate(0.000000,3289.000000) scale(0.100000,-0.100000)"
fill="#000000" stroke="none">
<path d="M17335 32070 c-52 -4 -91 -12 -93 -19 -2 -6 -25 -11 -55 -10 -38 0
-47 3 -32 9 19 8 19 9 -2 9 -12 1 -25 -4 -28 -10 -4 -6 -24 -8 -49 -5 -31 4
-35 3 -16 -3 22 -8 20 -9 -16 -10 -22 -1 -44 2 -48 6 -13 14 -208 2 -233 -14
-14 -10 -23 -11 -23 -4 0 6 6 11 13 11 8 0 7 4 -3 10 -23 15 -32 12 -26 -7 5
-16 -1 -18 -59 -15 -36 2 -65 0 -65 -5 0 -5 -15 -8 -32 -6 -28 3 -30 1 -13 -7
14 -7 1 -8 -48 -6 -39 3 -65 0 -61 -5 9 -15 -8 -10 -29 9 -19 16 -20 16 -14 0
5 -15 1 -18 -24 -18 -19 0 -28 -4 -23 -11 4 -8 -1 -9 -16 -4 -15 5 -20 4 -16
-4 10 -15 -17 -14 -33 2 -11 10 -13 10 -7 0 4 -8 1 -13 -8 -13 -9 0 -16 -5
-16 -11 0 -6 -9 -8 -20 -4 -11 4 -20 2 -20 -4 0 -6 -3 -10 -7 -10 -5 1 -11 0
-15 -1 -5 -1 -12 -4 -18 -5 -5 -1 -11 -4 -12 -5 -2 -1 -20 -3 -41 -4 -22 -2
-42 -8 -46 -15 -4 -6 -22 -15 -39 -21 -20 -5 -30 -5 -27 1 4 5 1 9 -4 9 -6 0
-11 -4 -11 -10 0 -5 -9 -10 -21 -10 -11 0 -18 -3 -16 -7 3 -5 -15 -8 -39 -9
-24 0 -49 -5 -56 -11 -21 -16 -106 -36 -128 -30 -11 3 -18 1 -14 -4 3 -5 15
-9 26 -9 37 0 13 -10 -32 -13 -24 -2 -46 -9 -48 -15 -2 -7 -14 -12 -27 -12
-48 0 -86 -12 -81 -26 7 -17 -10 -19 -18 -1 -5 9 -7 9 -12 0 -3 -7 -12 -9 -20
-6 -7 3 -17 -2 -20 -11 -3 -9 -10 -13 -15 -10 -5 3 -9 1 -9 -4 0 -5 -15 -9
-34 -8 -28 2 -33 0 -28 -16 3 -14 -4 -21 -29 -30 -19 -7 -37 -11 -41 -10 -5 1
-8 -3 -8 -9 0 -5 -4 -7 -10 -4 -5 3 -10 1 -10 -4 0 -6 -3 -10 -7 -10 -28 5
-53 -3 -53 -16 0 -17 -38 -35 -57 -28 -7 3 -16 -2 -19 -11 -3 -9 -10 -13 -15
-10 -5 3 -9 0 -9 -6 0 -6 -5 -8 -11 -5 -6 4 -17 -3 -26 -14 -8 -12 -20 -20
-26 -18 -7 2 -18 -2 -25 -9 -7 -7 -19 -11 -27 -8 -8 3 -24 -1 -37 -10 -12 -9
-30 -16 -39 -16 -9 0 -23 -8 -30 -17 -13 -17 -13 -17 6 -3 18 14 19 14 7 -2
-8 -9 -20 -14 -28 -11 -8 3 -17 -2 -20 -12 -5 -13 -9 -14 -16 -3 -6 10 -14 7
-33 -14 -15 -18 -32 -27 -47 -25 -16 1 -22 -3 -20 -14 1 -9 -5 -19 -13 -23 -9
-3 -13 -2 -10 4 13 21 -17 9 -45 -19 -19 -18 -38 -27 -49 -24 -10 3 -22 0 -25
-6 -5 -7 0 -9 11 -5 10 3 6 -2 -10 -11 -15 -9 -31 -13 -36 -11 -5 3 -12 -1
-15 -10 -4 -12 -13 -14 -32 -10 -20 5 -24 3 -22 -11 2 -12 -4 -17 -22 -18 -15
0 -24 -5 -22 -13 1 -8 -2 -11 -7 -7 -6 3 -18 -3 -28 -14 -12 -14 -24 -19 -42
-15 -20 4 -23 3 -11 -5 13 -9 13 -11 -2 -11 -10 0 -18 -5 -18 -11 0 -5 -4 -7
-10 -4 -5 3 -10 1 -10 -6 0 -8 -4 -8 -15 1 -9 7 -19 10 -22 6 -4 -4 -1 -11 7
-16 14 -9 7 -14 -12 -11 -5 0 -8 -4 -8 -10 0 -5 -4 -7 -10 -4 -5 3 -10 1 -10
-5 0 -7 -7 -10 -15 -7 -8 4 -17 1 -21 -5 -5 -7 -2 -8 6 -3 9 5 11 4 6 -4 -4
-7 -13 -10 -19 -8 -7 2 -18 -3 -25 -12 -8 -9 -10 -10 -6 -2 4 9 2 12 -7 9 -8
-3 -13 -10 -12 -16 1 -5 -12 -16 -30 -23 -18 -7 -40 -19 -49 -27 -12 -10 -18
-11 -18 -4 0 7 6 12 13 12 8 0 7 4 -3 10 -23 15 -32 12 -25 -9 3 -11 -1 -24
-12 -32 -15 -12 -16 -12 -9 1 7 13 6 13 -6 0 -7 -8 -20 -16 -28 -18 -8 -2 -17
-8 -18 -13 -2 -5 -8 -7 -13 -3 -5 3 -9 0 -9 -5 0 -6 -9 -11 -20 -11 -11 0 -23
-7 -26 -15 -4 -8 -10 -12 -15 -9 -5 3 -9 1 -9 -3 0 -5 -9 -14 -21 -21 -17 -11
-20 -11 -14 0 3 7 1 6 -7 -2 -7 -9 -25 -15 -40 -14 -16 2 -28 -1 -28 -7 0 -5
5 -9 11 -9 7 0 -5 -13 -26 -30 -21 -16 -34 -30 -30 -30 4 0 2 -7 -5 -15 -6 -8
-17 -13 -23 -12 -7 1 -12 -6 -12 -16 0 -10 -8 -25 -19 -32 -10 -8 -15 -19 -10
-26 4 -7 3 -10 -2 -7 -5 3 -19 -10 -31 -29 -13 -19 -19 -32 -14 -29 4 3 6 -7
3 -22 -4 -23 -6 -24 -12 -7 -6 16 -8 14 -18 -13 -6 -18 -16 -32 -22 -32 -6 0
-8 -5 -4 -12 5 -9 3 -9 -9 1 -14 11 -18 11 -23 -2 -3 -9 -2 -21 2 -28 5 -9 -1
-10 -21 -5 -23 6 -26 4 -21 -9 3 -9 -3 -23 -14 -32 -11 -10 -20 -23 -20 -29 0
-6 -16 -27 -35 -47 -19 -20 -35 -40 -35 -44 0 -5 -10 -13 -22 -18 -11 -6 -28
-21 -36 -35 -13 -23 -13 -24 2 -6 9 11 16 15 16 9 0 -5 -9 -18 -20 -28 -11
-10 -20 -13 -20 -7 0 7 -5 12 -10 12 -7 0 -7 -7 0 -20 10 -18 7 -21 -20 -26
-16 -4 -30 -12 -30 -19 0 -7 -9 -24 -20 -37 -10 -14 -17 -28 -13 -31 3 -4 1
-12 -5 -19 -10 -12 -12 -19 -12 -35 0 -4 -7 2 -15 13 -13 18 -14 17 -6 -12 9
-34 0 -61 -17 -50 -6 4 -16 -4 -23 -16 -11 -21 -11 -22 5 -9 9 8 19 11 23 7 3
-3 2 -6 -4 -6 -9 0 -33 -49 -34 -70 0 -3 -10 -10 -22 -17 -12 -6 -21 -15 -21
-20 3 -14 -22 -43 -30 -36 -4 4 -4 0 0 -10 3 -9 2 -17 -3 -17 -5 0 -18 -7 -29
-16 -18 -14 -18 -15 6 -4 l25 11 -23 -20 c-15 -13 -18 -21 -10 -24 10 -4 10
-6 1 -6 -7 -1 -13 -10 -13 -20 0 -11 -4 -23 -10 -26 -5 -3 -14 -23 -20 -44 -5
-21 -19 -48 -29 -60 -11 -13 -17 -29 -14 -37 7 -18 -33 -69 -41 -52 -3 7 -5 4
-4 -7 3 -31 -12 -65 -28 -65 -8 0 -15 -7 -15 -15 -3 -27 -4 -30 -26 -52 -19
-19 -23 -34 -23 -84 0 -33 -3 -58 -7 -56 -5 3 -7 -16 -6 -41 2 -34 0 -41 -6
-27 -5 13 -11 -20 -16 -104 -4 -76 -11 -118 -16 -110 -13 21 -11 1 3 -24 6
-12 13 -33 15 -47 2 -14 6 -41 9 -60 3 -19 6 -50 5 -67 -1 -18 4 -33 9 -33 6
0 10 -8 10 -17 0 -16 -2 -16 -11 -3 -10 15 -10 -7 6 -205 l5 -60 -15 35 -15
35 4 -40 c3 -22 7 -56 10 -75 5 -28 4 -31 -4 -15 -8 16 -9 12 -4 -18 3 -24 2
-37 -4 -33 -12 7 -22 -59 -26 -167 -2 -43 -8 -83 -15 -90 -15 -15 -15 -171 1
-161 8 5 9 -2 5 -25 -5 -23 -3 -30 5 -25 7 4 8 3 4 -4 -4 -6 0 -28 9 -48 8
-20 12 -40 10 -45 -3 -4 -3 -31 1 -60 5 -36 10 -47 16 -37 7 9 8 7 3 -7 -11
-34 -11 -40 4 -37 10 2 12 -5 8 -25 -3 -15 0 -38 6 -52 5 -15 9 -34 8 -43 -1
-10 2 -18 7 -18 5 0 7 -11 4 -25 -2 -14 0 -25 5 -25 6 0 10 -18 10 -40 0 -22
5 -45 10 -52 14 -18 25 -81 13 -73 -6 3 -10 -1 -10 -10 0 -8 7 -18 16 -22 8
-3 13 -11 10 -19 -3 -7 0 -30 6 -51 7 -21 11 -43 10 -50 -2 -6 2 -14 8 -18 5
-3 10 -13 10 -21 0 -9 -5 -12 -11 -8 -7 4 -9 -1 -7 -12 2 -11 9 -18 14 -17 5
1 11 -17 11 -39 1 -23 6 -45 11 -50 6 -6 7 -27 5 -49 -4 -27 -2 -39 7 -39 8 0
11 -9 7 -26 -2 -14 2 -40 11 -57 9 -18 15 -46 15 -64 -1 -18 3 -31 7 -28 5 3
6 -5 2 -17 -3 -13 -1 -19 5 -15 11 7 22 -53 24 -130 1 -18 5 -31 8 -28 4 2 8
-6 8 -18 2 -18 0 -19 -8 -7 -9 12 -10 12 -5 -3 3 -10 6 -21 6 -23 0 -3 5 -2
10 1 13 8 13 -1 -1 -27 -8 -14 -8 -23 0 -31 6 -6 11 -20 11 -31 0 -17 2 -18
10 -6 6 10 7 3 3 -24 -4 -27 -3 -37 5 -32 7 4 9 -4 5 -27 -3 -21 1 -46 11 -65
21 -40 18 -114 -4 -107 -15 4 -53 12 -100 21 -19 4 -22 2 -10 -6 13 -8 13 -10
-2 -10 -10 0 -18 -4 -18 -8 0 -5 -14 -6 -31 -4 -22 3 -30 1 -25 -7 4 -6 2 -11
-3 -11 -6 0 -11 4 -11 10 0 6 -9 6 -22 1 -13 -4 -29 -6 -37 -3 -8 2 -18 -2
-22 -11 -5 -9 -17 -13 -29 -10 -13 3 -22 -1 -26 -11 -4 -11 -13 -15 -27 -10
-16 5 -19 3 -14 -10 4 -10 3 -15 -3 -11 -6 3 -13 -1 -16 -9 -3 -9 -10 -14 -14
-11 -5 3 -12 0 -16 -6 -4 -8 -3 -9 4 -5 7 4 12 2 12 -3 0 -6 -4 -11 -9 -11 -5
0 -11 -15 -14 -32 -3 -18 -8 -42 -10 -53 -3 -11 -6 -29 -6 -40 -1 -17 -3 -17
-11 -5 -8 12 -10 9 -10 -13 0 -16 4 -26 9 -23 5 3 8 -13 8 -37 0 -68 5 -107
15 -101 4 3 8 -7 7 -23 0 -25 -1 -26 -10 -8 -8 17 -9 16 -6 -7 3 -19 -3 -34
-20 -50 -30 -27 -52 -65 -32 -52 7 4 -2 -14 -21 -39 -18 -26 -37 -47 -41 -47
-4 0 -13 -16 -19 -35 -6 -19 -16 -35 -22 -35 -6 0 -8 -9 -5 -20 3 -13 1 -18
-6 -13 -6 4 -8 -2 -5 -15 4 -12 3 -20 -2 -17 -4 3 -11 -3 -14 -12 -6 -15 -8
-15 -17 -3 -7 11 -9 6 -5 -17 3 -28 -1 -36 -25 -54 -16 -11 -32 -31 -35 -45
-3 -13 -9 -22 -13 -20 -3 2 -7 -11 -8 -29 -1 -18 -9 -45 -18 -59 -14 -22 -27
-109 -35 -241 0 -5 -4 -5 -8 2 -4 6 -6 -42 -5 -108 1 -74 -1 -117 -7 -114 -14
9 -12 -9 5 -41 8 -16 15 -36 15 -45 0 -9 3 -19 7 -23 9 -8 15 -34 14 -61 0
-11 8 -43 19 -71 10 -28 16 -61 13 -72 -2 -11 0 -29 6 -41 7 -12 13 -57 15
-100 4 -77 17 -121 36 -121 6 0 10 -7 10 -16 0 -8 4 -13 9 -10 14 9 19 -40 13
-130 -3 -51 -1 -89 6 -96 5 -7 15 -32 21 -56 7 -25 16 -40 22 -36 7 4 6 -2 -1
-16 -6 -12 -9 -24 -6 -28 3 -3 6 0 6 7 0 7 4 10 9 6 6 -3 4 -22 -5 -47 -8 -23
-12 -49 -8 -58 7 -15 18 -66 33 -150 4 -25 10 -52 13 -60 3 -8 3 -12 1 -7 -3
4 -9 7 -13 7 -5 0 -2 -20 7 -45 8 -25 18 -43 22 -41 4 3 7 -4 8 -14 1 -11 -3
-22 -8 -25 -5 -4 -7 -10 -4 -15 4 -6 14 -5 24 2 15 9 22 8 36 -5 9 -9 20 -17
25 -17 12 0 43 -51 35 -58 -3 -4 -10 0 -15 8 -5 8 -12 11 -16 8 -9 -9 18 -35
42 -40 11 -2 18 -11 16 -20 -1 -9 7 -22 19 -28 15 -8 19 -9 15 -1 -16 25 14 9
34 -19 12 -17 26 -27 35 -24 9 4 19 -3 26 -18 10 -24 39 -35 39 -15 0 5 7 3
17 -4 9 -8 19 -13 22 -11 3 2 28 0 55 -4 33 -4 44 -9 35 -15 -11 -7 -9 -9 6
-10 11 -1 25 0 30 1 69 17 74 17 79 4 3 -8 3 -20 0 -28 -3 -8 2 -28 10 -44 9
-17 14 -37 11 -44 -3 -7 3 -36 14 -64 11 -31 17 -69 15 -94 -2 -23 1 -50 7
-59 9 -13 10 -12 6 6 -3 13 0 26 5 30 6 3 8 1 4 -5 -3 -6 3 -17 15 -26 12 -8
18 -19 15 -25 -4 -6 3 -20 14 -31 11 -11 18 -26 14 -31 -4 -6 -3 -14 2 -18 18
-12 56 -73 50 -78 -3 -4 -6 0 -6 7 0 7 -3 11 -6 8 -3 -4 15 -50 40 -103 25
-53 46 -101 46 -106 0 -5 5 -9 10 -9 6 0 10 -7 10 -15 0 -8 5 -15 11 -15 5 0
8 -4 5 -9 -3 -4 5 -18 19 -31 13 -12 22 -27 19 -34 -2 -6 7 -23 21 -38 14 -16
23 -28 19 -28 -4 0 1 -9 11 -20 10 -11 13 -20 7 -20 -6 0 -13 6 -15 13 -3 7
-6 7 -6 1 -1 -13 34 -55 46 -55 4 0 7 -6 5 -14 -1 -7 2 -16 8 -20 5 -3 10 -14
10 -25 0 -10 6 -20 14 -23 8 -3 15 -24 18 -52 3 -39 1 -43 -9 -28 -12 15 -13
15 -13 0 0 -9 6 -20 14 -24 13 -8 19 -52 17 -129 -1 -23 -7 -33 -22 -37 -21
-6 -21 -9 -15 -150 6 -138 6 -145 -13 -150 -16 -4 -19 -11 -16 -37 3 -18 7
-35 11 -39 4 -3 4 8 0 24 -5 20 -4 27 3 20 9 -10 25 -140 36 -295 3 -41 7 -97
9 -125 l4 -50 -7 45 c-7 39 -8 32 -11 -50 -2 -52 -2 -102 -1 -110 1 -8 3 -31
5 -50 2 -19 7 -65 11 -102 6 -51 5 -68 -4 -68 -8 0 -10 -8 -5 -22 3 -13 3 -20
-1 -16 -8 8 -61 -17 -84 -39 -7 -8 -22 -12 -32 -10 -10 3 -18 2 -17 -2 2 -19
-4 -30 -21 -36 -24 -7 -61 -39 -61 -53 0 -6 -6 -15 -14 -19 -7 -4 -18 -18 -25
-31 -7 -12 -17 -20 -23 -16 -6 4 -8 3 -4 -4 3 -6 -2 -17 -12 -24 -11 -7 -21
-17 -23 -23 -2 -5 -8 -9 -12 -7 -5 1 -6 -7 -2 -18 4 -11 0 -29 -8 -41 -14 -20
-15 -20 -20 -2 -3 10 -5 5 -4 -12 2 -36 -22 -115 -35 -115 -5 0 -6 -5 -3 -11
4 -5 -1 -19 -10 -29 -9 -10 -15 -22 -12 -27 6 -10 -19 -34 -27 -26 -3 4 -6
-12 -6 -35 0 -22 -4 -44 -10 -47 -5 -3 -10 -16 -10 -28 0 -18 -2 -19 -10 -7
-8 11 -9 9 -5 -10 3 -14 7 -80 9 -147 3 -91 0 -127 -10 -140 -7 -10 -10 -28
-7 -40 5 -24 -12 -33 -20 -10 -2 6 -8 8 -13 4 -5 -4 -2 -12 5 -16 10 -7 10
-13 2 -29 -6 -11 -11 -30 -11 -42 0 -23 -44 -83 -53 -73 -3 3 -12 -4 -19 -16
-7 -12 -23 -21 -36 -21 -13 0 -21 -4 -18 -9 3 -5 -1 -14 -9 -21 -8 -7 -15 -9
-15 -5 0 4 -15 -4 -32 -17 -18 -14 -43 -28 -55 -32 -13 -4 -22 -12 -20 -19 1
-6 -2 -11 -8 -12 -5 0 -16 -4 -22 -8 -7 -5 -18 -5 -25 -1 -6 4 -8 3 -5 -3 9
-14 -29 -47 -44 -37 -7 4 -10 3 -7 -2 6 -9 -17 -36 -24 -29 -2 2 -17 -7 -32
-20 -16 -14 -38 -25 -48 -25 -11 0 -17 -4 -14 -9 3 -5 -1 -14 -9 -21 -8 -7
-15 -9 -15 -5 0 4 -14 -5 -31 -19 -17 -14 -39 -26 -50 -26 -11 0 -18 -4 -14
-9 5 -9 -12 -26 -27 -26 -4 0 -18 -9 -30 -20 -34 -29 -69 -46 -81 -38 -6 3 -7
1 -3 -5 4 -7 -8 -18 -30 -29 -20 -10 -36 -22 -35 -27 2 -7 -70 -57 -83 -57 -3
0 -19 -13 -35 -29 -16 -17 -37 -30 -45 -30 -9 0 -16 -5 -16 -11 0 -5 -4 -8 -9
-5 -12 8 -42 -4 -36 -14 6 -10 -56 -32 -76 -28 -8 2 -13 -3 -11 -10 2 -10 -2
-10 -20 -1 -21 11 -22 11 -9 -5 12 -14 12 -16 -3 -10 -9 3 -16 1 -16 -5 0 -7
-9 -9 -23 -6 -16 4 -29 -1 -42 -17 l-20 -22 28 17 c15 10 27 13 27 8 0 -10
-54 -40 -83 -46 -10 -2 -15 0 -12 6 9 13 -8 11 -39 -4 -14 -8 -23 -17 -19 -21
4 -4 -1 -4 -11 0 -15 6 -17 4 -11 -7 7 -11 5 -11 -10 1 -10 8 -16 10 -12 4 4
-7 0 -15 -9 -18 -8 -3 -12 -2 -9 3 3 5 1 12 -4 15 -5 3 -11 -1 -15 -9 -3 -8
-12 -15 -21 -15 -8 0 -15 -5 -15 -11 0 -7 -13 -10 -34 -7 -19 2 -34 1 -33 -2
1 -3 -2 -7 -8 -9 -5 -3 -19 -13 -29 -23 -15 -13 -23 -15 -33 -7 -10 9 -13 8
-13 -4 0 -9 -14 -17 -37 -22 -21 -4 -39 -5 -39 -3 -1 1 -11 -6 -23 -16 -19
-17 -21 -18 -21 -2 0 9 -5 14 -10 11 -6 -4 -8 -10 -6 -14 6 -9 -82 -36 -90
-28 -4 3 -15 -3 -27 -13 -11 -11 -23 -18 -26 -15 -2 3 3 11 12 18 16 11 15 12
-8 13 -21 2 -25 -2 -20 -17 6 -19 0 -22 -47 -22 -10 0 -18 -4 -18 -8 0 -5 -5
-9 -11 -9 -5 0 -7 5 -3 12 4 7 3 8 -5 4 -6 -4 -9 -11 -6 -16 3 -5 1 -11 -5
-15 -9 -6 -14 7 -11 28 0 4 -4 7 -10 7 -6 0 -8 -8 -4 -20 5 -15 2 -18 -14 -15
-11 2 -23 0 -26 -6 -4 -5 -15 -9 -26 -9 -10 0 -19 -4 -19 -9 0 -5 -8 -8 -17
-6 -10 1 -29 -4 -42 -12 -13 -8 -36 -13 -52 -11 -15 2 -27 1 -26 -4 1 -4 -17
-19 -40 -33 -36 -22 -43 -23 -43 -10 0 9 -5 13 -10 10 -6 -4 -8 -10 -5 -14 7
-13 -71 -34 -100 -27 -23 6 -26 4 -20 -14 5 -15 3 -19 -9 -14 -10 4 -16 1 -16
-7 0 -7 -3 -9 -7 -6 -3 4 -12 -1 -20 -11 -8 -9 -12 -12 -9 -6 3 7 -1 18 -10
25 -13 11 -15 11 -12 -2 4 -18 -34 -57 -50 -51 -7 2 -12 -1 -12 -7 0 -6 -11
-11 -25 -11 -14 0 -25 -5 -25 -12 0 -6 -3 -8 -7 -5 -3 4 -17 0 -29 -8 -17 -11
-25 -12 -30 -3 -4 7 -3 8 4 4 7 -4 12 -2 12 4 0 7 -6 10 -12 7 -7 -2 -12 -11
-10 -19 3 -17 -18 -28 -62 -34 -16 -2 -34 -8 -40 -13 -6 -5 -20 -11 -31 -13
-11 -1 -29 -11 -39 -20 -11 -10 -22 -16 -25 -13 -2 3 3 11 12 18 16 11 15 12
-8 13 -21 2 -25 -2 -20 -17 5 -15 1 -19 -20 -19 -15 0 -24 -4 -20 -10 9 -14
-18 -12 -34 3 -9 7 -12 8 -7 0 3 -6 -8 -23 -26 -38 -29 -25 -33 -25 -38 -9 -5
12 -9 14 -14 6 -4 -7 -4 -12 1 -12 4 -1 -4 -8 -20 -16 -15 -8 -32 -12 -37 -9
-6 3 -10 1 -10 -4 0 -6 -5 -11 -11 -11 -5 0 -7 6 -3 13 4 7 3 9 -2 4 -5 -5 -9
-14 -9 -20 -1 -7 -6 -11 -13 -10 -7 2 -12 -1 -12 -6 0 -5 -20 -8 -45 -6 -43 2
-44 1 -39 -22 6 -21 4 -23 -20 -19 -14 3 -26 1 -26 -3 0 -5 -15 -15 -32 -22
-18 -7 -55 -26 -81 -41 -27 -16 -46 -24 -42 -18 3 5 1 10 -4 10 -6 0 -11 -4
-11 -10 0 -5 -6 -10 -13 -10 -7 0 -23 -9 -35 -20 -14 -13 -22 -16 -22 -8 0 8
-3 9 -8 3 -4 -6 -26 -19 -49 -30 -24 -11 -43 -23 -43 -27 0 -5 -6 -8 -13 -8
-18 0 -67 -24 -67 -32 0 -5 -9 -8 -19 -8 -11 0 -22 -4 -25 -9 -3 -5 -26 -8
-51 -6 -40 2 -44 0 -42 -19 1 -15 -4 -21 -18 -21 -11 0 -26 -6 -34 -13 -7 -7
-19 -11 -26 -8 -8 3 -16 -2 -19 -10 -3 -9 -10 -13 -15 -10 -5 3 -12 -1 -15
-10 -3 -9 -12 -14 -19 -11 -7 3 -21 -1 -32 -9 -10 -8 -27 -14 -36 -14 -10 0
-19 -5 -21 -11 -2 -5 -19 -12 -37 -15 -19 -3 -59 -17 -89 -31 -39 -18 -65 -23
-89 -20 -31 5 -33 4 -27 -16 3 -12 3 -19 -1 -15 -4 4 -19 -2 -34 -13 -15 -12
-27 -16 -29 -10 -2 6 -8 11 -13 11 -6 0 -7 -5 -4 -11 4 -6 1 -9 -6 -8 -25 5
-189 -13 -185 -19 2 -4 -25 -5 -60 -4 -44 3 -70 -1 -81 -10 -10 -8 -14 -8 -10
-1 4 6 3 14 -2 17 -5 3 -11 0 -14 -8 -3 -8 -31 -16 -73 -20 -37 -4 -72 -10
-77 -13 -6 -4 -37 -5 -69 -4 -38 2 -65 -2 -76 -11 -10 -8 -13 -8 -9 -1 4 6 3
14 -2 17 -5 3 -11 -1 -15 -9 -3 -10 -19 -15 -46 -15 -23 0 -39 -4 -36 -8 3 -5
-9 -6 -26 -4 -16 3 -33 1 -37 -4 -3 -5 -35 -19 -69 -31 -47 -17 -69 -20 -82
-13 -24 13 -33 13 -25 1 7 -12 -26 -31 -51 -31 -10 0 -26 -7 -36 -17 -17 -15
-18 -15 -18 1 0 9 -5 14 -10 11 -6 -4 -8 -10 -5 -14 2 -5 -19 -11 -47 -14 -28
-4 -54 -11 -58 -16 -3 -6 -25 -13 -48 -17 -24 -4 -50 -13 -58 -21 -8 -8 -14
-12 -14 -8 0 3 -9 1 -20 -5 -14 -7 -20 -7 -20 0 0 5 -8 10 -17 10 -14 0 -15
-2 -5 -9 11 -7 11 -9 -2 -14 -14 -6 -21 4 -17 26 0 4 -4 7 -10 7 -6 0 -8 -8
-5 -18 4 -12 0 -18 -12 -19 -9 -1 -51 -11 -92 -23 -41 -12 -85 -22 -97 -23
-13 0 -23 -5 -23 -9 0 -11 -34 -10 -48 2 -9 7 -9 7 -2 -2 17 -21 11 -28 -20
-22 -35 8 -109 -4 -92 -15 6 -4 -3 -7 -21 -7 -57 -1 -128 -15 -121 -25 3 -6
-4 -7 -19 -4 -14 4 -28 2 -31 -4 -4 -6 -13 -11 -19 -11 -7 0 -6 4 3 10 12 7 8
10 -15 10 -23 0 -27 -3 -15 -10 12 -8 12 -10 -5 -11 -43 -2 -80 -11 -86 -21
-3 -5 -23 -10 -43 -11 -20 -1 -36 -4 -36 -8 0 -4 -11 -9 -25 -11 -15 -3 -22
-1 -18 5 4 6 0 8 -11 4 -10 -4 -27 -7 -37 -7 -11 0 -17 -5 -14 -10 4 -7 -5 -9
-24 -5 -23 4 -33 1 -38 -10 -3 -9 -12 -14 -21 -10 -8 3 -20 1 -26 -4 -16 -12
-125 -44 -161 -46 -17 -1 -44 -14 -59 -29 -16 -14 -35 -26 -42 -26 -7 0 -14
-5 -16 -12 -3 -7 -13 -2 -26 12 -17 19 -22 20 -22 7 0 -9 8 -21 18 -26 14 -9
14 -10 1 -11 -8 0 -20 5 -26 11 -9 9 -29 8 -80 -2 -37 -7 -76 -13 -85 -13 -9
0 -20 -11 -23 -24 -4 -16 -11 -22 -23 -18 -9 3 -24 1 -32 -4 -11 -7 -11 -10
-2 -10 7 0 10 -5 7 -11 -4 -6 -13 -8 -21 -5 -8 3 -14 2 -14 -2 0 -11 -42 -9
-59 2 -11 7 -13 5 -8 -8 4 -10 7 -20 7 -22 0 -3 9 0 21 6 18 10 19 10 10 -8
-13 -24 -38 -35 -45 -19 -3 7 -5 0 -3 -14 2 -31 -19 -60 -39 -52 -10 4 -14 -3
-14 -27 0 -22 -4 -29 -12 -24 -8 5 -7 0 2 -11 8 -10 10 -16 3 -12 -11 7 -30
-45 -25 -66 2 -5 -2 -6 -7 -3 -10 7 -24 -22 -16 -34 3 -5 1 -11 -5 -15 -6 -4
-7 -11 -4 -17 4 -6 -1 -8 -14 -4 -17 6 -20 2 -18 -19 1 -23 2 -24 13 -8 7 9
15 14 18 12 3 -3 -3 -14 -13 -25 -9 -10 -18 -26 -19 -34 -3 -21 -31 -135 -47
-195 -8 -27 -19 -49 -25 -48 -6 2 -11 -2 -11 -7 0 -6 5 -10 10 -10 15 0 12
-46 -4 -59 -7 -6 -17 -41 -21 -77 -4 -36 -13 -77 -21 -92 -8 -15 -14 -46 -14
-69 0 -24 -5 -43 -11 -43 -5 0 -7 5 -3 12 4 7 3 8 -5 4 -9 -6 -9 -11 0 -22 9
-11 9 -14 -1 -14 -10 0 -10 -3 0 -15 10 -13 10 -19 -2 -33 -9 -10 -15 -34 -14
-60 1 -27 -3 -41 -10 -38 -6 2 -11 -2 -11 -10 0 -7 3 -11 7 -9 4 2 7 -2 7 -10
0 -8 -4 -12 -8 -9 -4 2 -10 0 -14 -6 -3 -5 0 -10 9 -10 12 0 13 -4 1 -27 -8
-16 -13 -40 -11 -55 2 -15 0 -25 -4 -23 -6 4 -11 -18 -22 -110 -2 -11 -6 -22
-9 -25 -6 -5 -18 -92 -19 -133 0 -10 -4 -16 -9 -13 -5 3 -12 -1 -15 -10 -9
-24 -7 -31 4 -14 8 12 10 9 10 -13 0 -16 -4 -26 -9 -23 -5 3 -11 -13 -14 -35
-3 -22 -13 -49 -23 -60 -16 -17 -16 -19 -1 -19 10 0 17 -4 17 -10 0 -5 -5 -10
-11 -10 -6 0 -8 -8 -5 -17 3 -10 -1 -31 -9 -47 -8 -15 -15 -44 -15 -62 0 -19
-5 -34 -11 -34 -6 0 -8 -7 -5 -16 3 -8 2 -13 -3 -10 -5 3 -12 -1 -15 -10 -3
-8 -2 -13 2 -10 5 3 9 -1 9 -9 0 -8 -4 -12 -9 -9 -8 5 -11 -5 -11 -38 0 -10
-4 -18 -9 -18 -5 0 -7 -4 -4 -9 4 -5 0 -12 -6 -14 -10 -4 -10 -6 0 -6 8 -1 10
-6 5 -13 -4 -7 -9 -17 -10 -23 -15 -58 -21 -78 -22 -67 -1 6 -5 12 -9 12 -12
0 -11 -32 1 -48 6 -8 5 -12 -3 -12 -8 0 -11 -3 -7 -6 3 -3 -1 -27 -8 -52 -8
-26 -16 -60 -18 -77 -2 -16 -8 -39 -12 -49 -5 -11 -9 -35 -9 -53 -1 -22 -5
-32 -15 -30 -8 1 -15 -7 -16 -20 -1 -12 2 -20 7 -17 4 3 8 0 8 -5 0 -6 -5 -11
-10 -11 -7 0 -7 -6 0 -19 7 -14 7 -22 -1 -27 -6 -3 -9 -15 -6 -25 3 -11 1 -19
-4 -19 -5 0 -9 -9 -9 -19 0 -11 -3 -27 -6 -36 -5 -13 -8 -14 -15 -3 -7 10 -9
9 -9 -4 0 -10 5 -18 11 -18 5 0 8 -4 5 -8 -3 -5 -8 -35 -11 -68 -3 -32 -8 -70
-10 -84 -3 -14 -7 -63 -9 -110 -4 -72 -31 -204 -53 -260 -3 -8 -5 -18 -5 -22
1 -5 -3 -8 -9 -8 -7 0 -9 -12 -7 -31 4 -22 0 -34 -13 -42 -13 -8 -15 -16 -8
-34 6 -16 5 -22 -1 -18 -6 3 -10 -2 -10 -13 0 -10 -3 -22 -7 -26 -7 -7 -13
-42 -14 -79 0 -9 -4 -17 -9 -17 -4 0 -7 -13 -6 -30 1 -16 -1 -30 -4 -30 -9 0
-32 -119 -25 -130 3 -6 2 -10 -3 -10 -5 0 -9 -6 -10 -12 -1 -7 -4 -27 -6 -44
-6 -45 -16 -74 -27 -74 -5 0 -9 -8 -9 -17 0 -15 2 -16 10 -3 8 13 10 12 10 -2
0 -10 -5 -18 -11 -18 -6 0 -7 -5 -2 -12 10 -17 11 -32 1 -39 -5 -3 -12 -36
-17 -74 -4 -38 -13 -71 -19 -73 -15 -5 -16 -32 -1 -32 8 0 9 -4 0 -13 -6 -8
-8 -17 -4 -20 3 -4 0 -14 -8 -23 -7 -9 -15 -28 -17 -43 -1 -14 -10 -41 -18
-59 -8 -18 -12 -37 -8 -44 5 -7 3 -8 -6 -3 -9 6 -10 1 -5 -16 4 -16 3 -20 -3
-11 -7 10 -12 4 -18 -25 -4 -21 -8 -42 -8 -48 -1 -5 -5 -13 -9 -16 -4 -3 -9
-16 -10 -27 -1 -12 -6 -22 -12 -22 -5 0 -4 -4 4 -9 11 -7 11 -13 -3 -32 -9
-13 -16 -40 -16 -61 0 -21 -5 -38 -11 -38 -6 0 -8 -7 -5 -16 3 -8 2 -12 -3 -9
-13 7 -24 -30 -16 -55 8 -24 -10 -27 -23 -4 -6 11 -11 13 -16 5 -4 -6 -2 -11
4 -11 6 0 8 -5 4 -12 -4 -6 -3 -8 4 -4 7 4 10 -1 9 -14 -1 -11 -5 -20 -10 -20
-5 0 -7 -11 -5 -25 3 -13 1 -22 -3 -19 -5 3 -9 -3 -9 -13 0 -10 -7 -31 -15
-47 -17 -32 -20 -49 -5 -26 6 9 10 10 10 3 0 -6 -4 -14 -10 -18 -5 -3 -6 -13
-3 -22 4 -11 3 -14 -5 -9 -8 5 -12 0 -12 -13 0 -11 -4 -22 -10 -26 -5 -3 -7
-12 -4 -19 3 -8 1 -17 -5 -21 -6 -3 -11 -11 -11 -16 0 -6 6 -7 12 -3 9 6 9 3
0 -9 -8 -9 -11 -21 -7 -27 3 -5 1 -10 -5 -10 -7 0 -9 -8 -5 -19 3 -11 1 -22
-4 -25 -6 -4 -7 -14 -4 -24 6 -15 5 -15 -10 -3 -15 12 -16 9 -13 -33 2 -25 -1
-43 -5 -40 -5 3 -9 -2 -9 -10 0 -9 -4 -16 -10 -16 -5 0 -10 -7 -10 -15 0 -8 5
-15 10 -15 12 0 1 -52 -13 -61 -5 -4 -6 -12 -3 -18 4 -6 2 -11 -3 -11 -6 0
-11 -9 -11 -19 0 -11 -4 -22 -9 -25 -4 -3 -6 -17 -3 -31 2 -14 -1 -32 -8 -40
-6 -8 -9 -19 -6 -24 4 -5 1 -13 -5 -16 -5 -4 -8 -14 -5 -22 3 -8 1 -11 -4 -8
-11 7 -28 -52 -23 -82 2 -13 -1 -23 -7 -23 -5 0 -10 -11 -10 -24 0 -14 -5 -28
-11 -32 -8 -4 -7 -9 2 -15 11 -7 11 -9 1 -9 -9 0 -11 -7 -7 -19 4 -12 0 -21
-12 -25 -15 -6 -15 -8 -3 -16 8 -6 10 -10 4 -10 -7 0 -15 -17 -19 -37 -4 -24
-9 -32 -15 -24 -4 8 -7 -9 -6 -38 0 -28 -3 -51 -8 -51 -4 0 -6 -9 -3 -20 3
-10 2 -19 -2 -18 -21 2 -30 -4 -24 -18 5 -13 7 -13 14 -2 5 7 9 8 9 2 0 -6 -3
-14 -7 -18 -5 -4 -9 -12 -9 -17 -1 -5 -2 -10 -4 -11 -3 -5 -12 -43 -14 -67 -2
-14 -8 -27 -14 -29 -7 -2 -9 -8 -6 -13 3 -6 2 -15 -4 -22 -5 -7 -15 -44 -22
-84 -8 -47 -17 -70 -24 -66 -6 4 -4 -2 4 -12 12 -15 12 -17 1 -10 -11 6 -13 2
-9 -18 3 -17 1 -24 -5 -20 -6 4 -8 0 -4 -11 6 -14 3 -16 -13 -11 -11 4 -20 2
-20 -4 0 -6 3 -10 8 -10 27 5 33 -1 20 -23 -7 -13 -14 -30 -15 -38 -3 -20 -9
-42 -16 -60 -4 -8 -8 -28 -11 -45 -2 -16 -5 -30 -6 -30 -2 0 -4 -10 -5 -22 -1
-12 -6 -30 -10 -40 -5 -10 -9 -25 -9 -33 -1 -8 -5 -21 -9 -27 -5 -7 -5 -19 -2
-25 4 -7 -1 -4 -9 6 -16 19 -16 19 -14 -6 1 -15 6 -24 10 -21 11 6 4 -31 -16
-91 -9 -26 -16 -63 -16 -82 0 -21 -4 -33 -10 -29 -6 4 -8 -10 -6 -37 1 -24 0
-47 -4 -53 -10 -14 -40 -179 -40 -222 0 -7 1 -23 1 -35 0 -41 -6 -78 -13 -78
-5 0 -8 -5 -8 -11 0 -5 6 -7 13 -3 8 5 7 2 -2 -10 -8 -10 -15 -42 -16 -75 -1
-31 -4 -61 -7 -67 -4 -5 -9 -27 -13 -49 -4 -22 -9 -48 -12 -59 -3 -12 -1 -16
6 -12 16 10 13 -3 -5 -21 -10 -11 -14 -31 -13 -62 1 -25 -1 -55 -6 -65 -5 -11
-9 -35 -9 -53 -1 -27 -4 -32 -20 -27 -16 5 -18 3 -11 -12 12 -29 14 -84 3 -84
-6 0 -4 -8 3 -17 12 -15 12 -16 -1 -8 -13 7 -13 6 -2 -7 9 -12 10 -17 1 -20
-6 -2 -12 -25 -13 -51 -1 -40 -4 -46 -18 -41 -10 3 -18 1 -18 -5 0 -6 3 -10 8
-10 20 3 33 -2 27 -11 -4 -6 -9 -8 -13 -6 -4 2 -8 -30 -10 -72 -2 -42 -6 -81
-10 -87 -5 -5 -9 -35 -11 -64 -2 -60 -7 -74 -22 -65 -5 3 -8 -8 -7 -25 1 -17
7 -31 13 -31 7 0 9 -14 7 -35 -3 -23 -8 -32 -16 -28 -6 4 -6 0 2 -9 10 -13 10
-17 0 -20 -8 -3 -14 -31 -16 -77 -3 -50 -7 -69 -14 -60 -6 9 -7 2 -3 -21 4
-21 3 -30 -2 -23 -6 8 -9 -26 -8 -82 0 -52 -3 -95 -8 -95 -5 0 -7 -17 -5 -37
2 -31 0 -38 -14 -37 -14 1 -15 -2 -8 -16 13 -24 13 -60 0 -60 -5 0 -10 -5 -10
-11 0 -5 5 -7 10 -4 6 3 10 -3 10 -14 0 -12 -5 -21 -11 -21 -7 0 -9 -15 -6
-40 2 -21 0 -41 -5 -42 -6 -2 -11 -24 -11 -50 -1 -25 -5 -44 -8 -42 -4 2 -9
-7 -11 -21 -3 -13 -1 -22 3 -19 5 3 9 1 9 -5 0 -5 -6 -12 -12 -14 -9 -4 -9 -6
-1 -6 8 -1 9 -10 2 -35 -5 -19 -8 -46 -5 -61 3 -14 1 -23 -5 -20 -5 4 -9 -10
-9 -30 0 -20 -5 -45 -10 -56 -8 -13 -7 -25 1 -40 8 -15 8 -19 0 -15 -7 5 -11
-9 -11 -44 0 -51 2 -54 132 -223 1115 -1451 2416 -2672 3915 -3677 186 -124
636 -411 639 -407 7 10 10 86 3 81 -5 -3 -9 11 -9 31 0 29 3 36 15 31 8 -3 15
-1 15 4 0 6 -5 10 -11 10 -7 0 -8 12 -4 32 l6 33 -16 -25 -16 -25 5 33 c3 19
1 32 -5 32 -7 0 -9 10 -5 26 5 17 3 23 -4 19 -6 -4 -10 4 -10 20 0 14 4 24 8
21 4 -2 8 4 8 15 0 21 -12 25 -19 7 -3 -7 -6 -3 -6 9 -1 12 6 26 16 31 17 10
12 42 -6 42 -6 0 -8 -6 -5 -14 3 -8 1 -17 -4 -20 -6 -3 -12 10 -14 29 -2 19
-1 35 3 35 3 0 4 11 1 25 -3 18 0 25 12 25 10 0 16 8 16 23 0 18 -2 19 -11 7
-8 -12 -9 -10 -5 10 3 14 6 34 7 45 1 16 2 16 9 -5 4 -16 7 1 7 50 0 44 5 76
11 78 6 2 8 10 5 18 -3 8 0 21 7 29 6 8 10 20 7 27 -2 7 0 21 5 31 5 11 5 17
-2 17 -6 0 -10 28 -10 68 0 50 3 63 11 52 8 -12 9 -9 5 12 -4 16 -2 28 4 28 5
0 10 8 10 18 0 14 -2 15 -10 2 -7 -11 -10 3 -9 45 0 44 3 55 10 40 5 -13 6 20
3 89 -5 79 -3 107 5 102 6 -4 9 -19 5 -34 -4 -18 -3 -23 4 -14 11 16 74 -152
65 -175 -4 -10 -2 -14 4 -10 5 3 17 -16 25 -44 9 -27 12 -47 7 -44 -4 3 -3 -8
2 -25 6 -16 15 -27 20 -24 12 7 11 -3 -3 -29 -10 -19 -9 -20 4 -9 27 22 52
-72 51 -188 0 -83 0 -88 7 -40 7 47 7 43 4 -28 -2 -51 1 -80 6 -77 14 9 13
-95 -1 -134 -12 -35 -4 -55 12 -31 7 10 9 -16 7 -82 -2 -53 -6 -94 -10 -92 -4
3 -6 -27 -6 -66 1 -40 5 -65 10 -58 4 7 7 -11 7 -42 -2 -51 -2 -53 -10 -20 -7
30 -7 27 -5 -18 2 -30 0 -48 -4 -42 -5 8 -9 7 -14 -5 -8 -23 -8 -25 6 -23 8 2
15 -13 18 -42 5 -44 6 -45 90 -93 195 -113 521 -288 765 -411 1652 -834 3435
-1384 5250 -1620 1386 -180 2710 -190 4075 -30 956 111 1938 315 2850 591
1229 371 2405 884 3533 1541 l147 86 0 70 c0 77 8 119 20 111 4 -3 6 22 5 55
-2 37 0 58 6 54 7 -4 8 8 4 30 -6 31 -5 35 9 30 11 -4 16 -1 16 10 0 9 -4 16
-10 16 -5 0 -10 9 -10 20 0 11 5 20 11 20 6 0 9 -7 6 -15 -4 -8 -1 -17 4 -21
6 -3 8 -17 4 -31 -4 -18 -2 -23 6 -17 9 5 10 -1 5 -20 -4 -18 -3 -25 4 -21 9
6 11 -4 14 -62 1 -10 4 -20 7 -23 3 -3 11 -31 18 -62 7 -32 15 -58 18 -58 11
0 343 212 557 355 1176 786 2242 1718 3187 2785 334 378 819 982 758 945 -8
-6 -9 11 -4 63 6 57 4 75 -10 96 -14 21 -15 31 -6 57 13 38 14 60 2 40 -6 -9
-11 -10 -15 -2 -4 5 -1 19 6 30 10 16 10 23 0 33 -6 6 -12 32 -12 58 0 53 -9
92 -20 85 -13 -8 -23 126 -11 138 16 16 14 30 -3 24 -10 -4 -13 -1 -9 9 3 8 2
40 -2 72 -6 43 -9 52 -16 37 -6 -16 -8 -13 -8 15 -1 28 2 32 10 20 9 -12 10
-12 5 3 -3 10 -7 46 -8 80 l-1 62 -7 -50 c-4 -27 -8 -45 -9 -40 -4 21 -31 184
-45 275 -9 52 -18 103 -20 113 -2 9 0 17 5 17 5 0 9 8 9 18 0 14 -2 15 -10 2
-8 -12 -10 -11 -10 8 0 12 5 22 10 22 17 0 11 30 -16 87 -15 32 -23 62 -19 73
4 12 2 20 -6 20 -8 0 -10 12 -5 41 4 24 3 38 -3 35 -5 -3 -7 3 -4 14 3 11 1
20 -3 20 -5 0 -7 21 -5 46 2 27 -1 44 -6 41 -5 -3 -8 8 -5 26 3 26 1 29 -8 17
-9 -12 -10 -10 -6 12 3 14 -3 54 -13 87 -12 37 -17 76 -14 99 4 28 0 43 -11
55 -14 13 -15 21 -6 38 9 17 8 25 -7 41 -13 15 -17 34 -16 72 2 32 -1 46 -6
37 -6 -10 -11 5 -16 45 -3 32 -10 69 -16 82 -12 29 -12 65 0 58 5 -4 5 10 0
31 -4 21 -13 39 -18 41 -14 5 -14 42 0 42 6 0 9 6 6 13 -2 6 -10 11 -17 9 -7
-2 -9 5 -5 18 3 11 2 20 -2 20 -5 0 -17 35 -27 78 -10 42 -27 115 -38 161 -11
46 -18 94 -15 107 2 13 0 24 -5 24 -6 0 -7 12 -4 28 4 18 4 22 -3 13 -7 -11
-10 -10 -14 5 -17 56 -67 331 -64 346 3 9 0 19 -6 21 -9 3 -8 11 1 31 11 24
10 28 -2 23 -10 -4 -15 4 -18 29 -4 32 6 47 14 22 3 -8 7 -6 11 5 4 10 2 16
-6 14 -7 -1 -13 12 -15 32 -2 19 -11 41 -20 49 -9 7 -11 11 -4 7 8 -4 12 3 11
22 0 24 -2 25 -8 8 -7 -17 -8 -17 -13 8 -3 17 -1 27 7 27 7 0 12 10 11 22 -1
13 -7 22 -13 21 -6 -1 -14 21 -18 52 -3 30 -10 55 -15 55 -5 0 -7 10 -5 21 2
12 0 30 -5 40 -7 12 -6 20 2 25 7 4 8 3 4 -4 -4 -7 -2 -12 4 -12 7 0 10 6 7
13 -2 6 -10 11 -18 10 -10 -2 -15 10 -16 38 -2 22 -10 47 -19 56 -15 15 -15
17 -1 22 12 4 14 10 7 21 -9 13 -10 13 -10 0 0 -13 -1 -13 -10 0 -9 15 7 33
22 24 4 -3 8 0 8 6 0 7 -8 9 -19 5 -12 -3 -19 -1 -18 7 1 41 -4 59 -15 52 -8
-5 -7 0 2 11 8 10 10 16 4 12 -7 -4 -14 0 -18 8 -3 9 0 15 9 15 9 0 12 6 8 16
-4 11 -8 12 -13 4 -5 -8 -9 -7 -13 4 -3 8 -1 17 6 20 9 3 8 5 -1 5 -7 1 -10 6
-7 11 3 6 2 10 -4 10 -5 0 -8 9 -6 20 2 11 -1 20 -7 20 -6 0 -8 3 -5 6 3 4 2
16 -4 27 -7 13 -7 17 -1 13 22 -13 21 13 0 30 -15 10 -17 14 -6 11 10 -4 20
-1 24 5 4 6 3 8 -3 5 -14 -9 -38 24 -37 50 1 12 -2 20 -6 18 -12 -7 -31 81
-25 113 5 23 4 24 -5 7 -9 -18 -10 -17 -7 7 2 15 1 25 -3 23 -7 -5 -30 89 -28
115 3 31 -2 51 -11 46 -14 -9 -25 74 -12 87 6 6 11 17 11 25 0 11 -3 12 -14 3
-11 -9 -15 -7 -20 11 -8 32 -7 40 4 33 6 -3 7 1 4 9 -3 9 -10 16 -15 16 -5 0
-9 5 -9 11 0 5 4 8 8 5 5 -3 9 8 10 25 1 24 -2 28 -13 19 -14 -12 -17 -7 -30
57 -5 24 -3 33 7 33 8 0 7 4 -4 11 -10 5 -18 18 -18 27 0 13 2 14 9 3 6 -9 10
-4 13 18 3 22 1 28 -6 21 -27 -27 -36 3 -42 129 -2 52 -8 97 -12 100 -5 3 -12
13 -15 21 -12 32 -7 -15 8 -70 8 -30 15 -62 14 -70 0 -8 -20 57 -45 145 -25
88 -56 196 -70 241 -13 44 -27 94 -30 110 -3 16 -11 48 -19 71 -19 56 -55 234
-55 271 0 17 4 33 9 36 4 3 6 -5 4 -17 -2 -12 0 -33 6 -47 8 -21 9 -18 7 21
-2 25 -9 55 -15 67 -6 11 -11 48 -11 81 0 34 -4 61 -9 61 -5 0 -9 33 -9 73 -1
94 -17 254 -36 345 -9 39 -18 86 -21 104 -3 18 -10 49 -15 68 -5 20 -8 46 -5
58 2 12 0 20 -5 17 -5 -3 -12 7 -16 22 -3 15 -13 53 -20 83 -25 94 -131 513
-138 543 -5 19 -3 26 4 22 5 -3 10 -2 10 3 0 6 -7 12 -15 16 -8 3 -15 13 -15
21 0 9 5 13 10 10 6 -4 8 -11 5 -16 -4 -5 -4 -9 -1 -9 3 0 10 10 17 21 8 16 8
20 0 14 -7 -4 -16 6 -22 24 -6 17 -15 28 -21 25 -5 -3 -8 0 -7 7 1 8 -1 22 -6
32 -5 12 -1 25 11 38 14 15 15 20 4 17 -9 -2 -16 6 -18 22 -2 14 -7 30 -11 35
-4 6 -7 19 -7 30 1 11 -2 23 -7 26 -8 6 -16 39 -19 84 -1 17 -9 36 -18 43 -8
8 -9 11 -2 7 8 -4 12 5 12 34 0 21 -5 41 -11 43 -14 5 -41 68 -29 68 13 0 13
57 0 65 -5 3 -8 32 -5 63 2 35 1 46 -3 27 -6 -27 -9 -22 -21 40 -7 39 -20 95
-29 125 -8 30 -17 72 -19 93 -3 20 -9 40 -14 43 -5 3 -9 19 -9 35 0 17 -4 38
-9 47 -15 29 -25 116 -12 108 7 -5 9 -1 5 8 -3 9 -10 13 -15 10 -13 -8 -11 20
2 33 8 8 7 13 -2 18 -8 5 -10 4 -5 -3 4 -7 3 -12 -3 -12 -12 0 -21 31 -24 82
-1 20 -6 33 -11 30 -5 -3 -6 9 -3 29 5 25 4 30 -3 19 -9 -12 -10 -8 -9 15 4
54 -1 86 -10 80 -6 -3 -8 3 -6 15 2 11 0 22 -6 25 -5 4 -5 13 1 25 15 28 12
60 -5 60 -10 0 -15 10 -15 27 0 14 -8 35 -17 46 -10 11 -12 17 -6 13 9 -5 11
-2 7 9 -4 9 -9 13 -12 11 -10 -10 -31 15 -25 30 3 9 0 12 -8 9 -18 -6 -79 87
-75 112 4 21 -10 37 -39 41 -23 4 -48 22 -40 30 3 3 -5 10 -18 17 -12 6 -21
17 -19 24 1 7 -2 10 -6 7 -12 -7 -44 28 -35 39 5 4 3 5 -3 2 -6 -3 -24 7 -39
23 -16 17 -37 30 -47 30 -9 0 -37 6 -60 14 -24 8 -65 17 -91 20 -27 3 -56 10
-65 16 -12 7 -4 9 32 5 27 -3 52 -8 57 -11 5 -3 17 0 26 5 19 11 11 12 -97 17
-66 2 -66 2 -79 27 -6 12 -9 14 -7 5 3 -10 1 -18 -4 -18 -6 0 -10 4 -10 10 0
5 -3 9 -7 8 -19 -5 -53 15 -53 30 0 11 -3 13 -8 6 -6 -11 -52 -2 -52 10 0 2
10 2 23 0 13 -3 8 1 -11 10 -18 9 -31 19 -28 24 2 4 -6 8 -20 8 -13 0 -24 -4
-24 -8 0 -5 7 -8 16 -6 10 2 19 -3 21 -10 4 -10 -2 -10 -28 1 -73 31 -89 41
-89 54 0 7 -4 13 -9 13 -5 0 -22 5 -38 12 -15 6 -31 11 -35 10 -5 -1 -8 3 -8
9 0 8 -4 8 -14 0 -11 -9 -16 -9 -22 0 -5 8 -3 9 6 4 9 -5 11 -4 6 3 -4 7 -14
12 -22 12 -8 0 -14 4 -14 9 0 5 -8 12 -17 15 -10 2 -29 8 -42 11 -18 6 -22 4
-15 -6 6 -11 5 -12 -8 -2 -8 7 -19 9 -23 5 -5 -4 -5 1 -2 11 4 10 3 16 -3 12
-16 -10 -130 29 -130 45 -1 12 -3 12 -13 -2 -12 -15 -14 -15 -25 0 -7 9 -10
11 -7 4 3 -6 1 -12 -4 -12 -6 0 -11 5 -11 11 0 6 -7 8 -16 5 -8 -3 -13 -2 -11
2 3 4 -6 15 -19 25 -23 17 -24 17 -24 0 0 -15 -2 -16 -10 -3 -5 8 -12 12 -15
8 -4 -3 -16 3 -27 14 -11 11 -26 17 -36 13 -19 -7 -124 24 -117 35 3 5 -3 6
-13 3 -11 -2 -62 12 -114 31 -53 20 -99 36 -102 36 -4 0 -41 14 -83 32 -61 26
-72 33 -57 40 16 7 15 8 -5 4 -26 -5 -73 13 -66 25 3 4 -3 5 -12 3 -23 -6
-135 40 -125 51 4 5 -1 5 -11 2 -11 -4 -25 1 -38 14 -13 13 -29 19 -41 16 -11
-3 -17 -3 -14 0 5 6 -61 43 -77 43 -4 0 -5 -6 -1 -12 5 -9 2 -9 -9 1 -9 7 -17
10 -17 7 0 -4 -17 6 -37 21 -26 20 -38 24 -41 15 -3 -10 -8 -9 -22 3 -11 10
-30 18 -43 19 -14 0 -23 5 -20 9 3 5 -1 8 -8 6 -35 -4 -69 2 -83 17 -9 8 -20
12 -26 9 -6 -4 -9 -1 -8 7 2 9 -6 12 -25 11 -17 -1 -25 2 -21 9 4 6 -1 8 -15
3 -12 -4 -21 -2 -21 4 0 6 -7 11 -16 11 -8 0 -13 4 -10 9 3 5 -1 11 -9 14 -10
4 -12 1 -8 -10 5 -12 3 -14 -8 -7 -8 4 -22 10 -32 11 -10 2 -25 10 -33 18 -8
8 -22 11 -31 8 -13 -5 -15 -2 -10 11 6 14 2 17 -21 16 -15 -1 -31 -1 -37 0 -5
2 -14 4 -20 5 -41 7 -95 28 -95 36 0 5 -6 9 -12 8 -7 -1 -22 -1 -33 1 l-20 1
20 9 c17 8 16 9 -10 9 -36 0 -154 39 -173 58 -7 7 -25 13 -40 13 -42 0 -155
42 -140 52 8 5 0 6 -18 2 -24 -5 -37 -1 -52 14 -13 13 -29 19 -44 15 -18 -4
-20 -3 -8 6 13 9 12 11 -5 12 -11 1 -28 1 -37 0 -22 -3 -78 26 -78 40 0 7 -10
9 -27 5 -21 -5 -24 -4 -13 4 13 9 13 11 0 20 -8 5 -21 10 -29 10 -11 0 -11 -3
-1 -15 11 -13 10 -15 -1 -11 -8 2 -39 12 -69 21 -105 32 -279 97 -378 141 -29
13 -55 24 -57 24 -6 0 -93 38 -119 52 -10 5 -35 16 -55 23 -20 7 -70 29 -111
48 -41 19 -109 49 -150 67 -41 18 -88 38 -105 45 -16 7 -70 28 -120 45 -49 18
-171 61 -270 97 -99 36 -275 97 -392 135 -157 53 -210 74 -206 85 4 11 -7 13
-50 12 -36 -1 -62 3 -73 12 -9 7 -30 14 -48 16 -17 1 -40 4 -51 7 -11 2 -27 5
-35 5 -13 1 -13 2 0 11 12 8 10 10 -10 11 -14 1 -28 1 -32 0 -5 0 -8 4 -8 10
0 7 -14 10 -35 7 -19 -2 -35 0 -35 4 0 4 -7 8 -15 8 -8 0 -15 4 -15 8 0 5 -14
7 -30 6 -17 -1 -33 2 -36 7 -3 5 -10 6 -16 3 -7 -5 -9 -1 -5 9 3 9 1 19 -5 23
-7 5 -8 2 -3 -6 6 -9 0 -10 -26 -5 -19 5 -40 8 -46 8 -7 0 -13 6 -13 12 0 7
-12 13 -26 13 -15 0 -29 3 -33 8 -3 5 -19 10 -36 10 -50 2 -55 4 -55 15 0 5 6
7 13 3 8 -5 8 -3 -2 9 -12 15 -31 15 -31 1 0 -3 5 -2 12 2 7 5 8 3 3 -6 -6
-10 -11 -10 -20 3 -14 19 -30 23 -19 5 8 -13 -51 27 -76 51 -8 7 -15 20 -16
28 -3 19 -14 30 -14 14 0 -8 -5 -9 -19 -2 -10 6 -22 7 -26 3 -4 -4 -5 2 -3 13
2 14 -3 20 -17 20 -27 0 -48 22 -41 42 6 13 4 14 -9 3 -14 -11 -17 -10 -21 8
-4 11 -13 23 -21 27 -14 5 -14 3 -2 -11 13 -16 12 -16 -6 -6 -33 19 -55 39
-55 49 0 6 -13 16 -30 23 -16 7 -28 16 -25 20 3 4 -3 7 -13 6 -9 0 -16 4 -15
9 1 6 -8 12 -19 12 -11 1 -29 11 -40 22 -10 12 -23 21 -29 21 -6 0 -7 5 -3 12
4 7 3 8 -4 4 -7 -4 -20 -2 -29 3 -10 6 -13 11 -6 11 23 0 2 27 -23 29 -13 1
-30 2 -38 3 -8 1 -13 14 -13 37 -1 20 -11 66 -23 103 -12 37 -19 72 -16 77 3
5 -1 28 -9 51 -8 23 -15 57 -15 76 0 18 -5 36 -10 39 -6 4 -8 16 -4 27 5 15 3
19 -7 13 -11 -6 -11 -5 -2 5 9 10 8 16 -3 27 -8 8 -14 24 -14 36 0 12 -7 31
-15 41 -10 14 -12 22 -4 27 6 3 9 17 7 30 l-5 24 -10 -25 c-10 -23 -12 -23
-18 -7 -4 10 -8 26 -9 35 -1 10 -12 36 -24 60 -12 23 -20 42 -16 42 3 0 -2 7
-10 16 -14 14 -14 17 0 39 9 14 11 26 5 29 -5 4 -11 -1 -13 -10 -2 -11 -9 -6
-22 17 -10 17 -14 29 -7 25 6 -4 11 0 12 11 1 13 3 11 9 -7 l8 -25 1 28 c1 27
-12 36 -24 17 -3 -5 -10 -10 -14 -10 -14 0 -32 52 -25 72 4 13 2 18 -4 14 -6
-4 -8 2 -4 16 3 14 2 19 -6 14 -7 -4 -12 -1 -12 7 0 8 -23 38 -51 67 -28 29
-48 58 -45 66 3 9 0 11 -11 7 -10 -4 -14 -2 -9 5 3 6 -9 22 -29 37 -19 15 -32
31 -29 36 3 5 1 9 -3 9 -5 0 -37 26 -71 59 -34 32 -75 64 -91 70 -22 10 -27
17 -23 37 2 13 12 24 21 25 9 0 4 5 -11 11 -25 8 -28 15 -28 53 0 24 -3 52 -6
62 -5 15 -4 15 5 3 9 -12 11 -9 12 15 8 167 10 181 58 315 17 47 31 102 31
123 0 21 4 46 10 56 5 10 11 30 14 44 2 14 12 42 21 61 9 19 14 40 10 45 -3 6
1 21 9 33 14 22 32 95 28 111 -1 5 2 6 7 2 15 -8 43 65 37 95 -3 14 -3 19 0
12 5 -10 9 -10 20 -1 16 13 20 5 27 -46 2 -18 5 -9 6 23 1 42 -2 52 -15 52
-10 0 -14 5 -10 16 4 10 2 13 -7 8 -6 -3 1 6 18 22 16 16 33 28 37 27 4 -2 5
4 2 12 -4 8 -1 15 6 15 6 0 9 4 5 9 -3 5 5 17 17 25 12 9 19 16 15 16 -5 0 -1
7 7 16 9 8 19 27 23 42 3 15 22 43 42 64 62 62 79 88 97 143 9 30 24 62 33 72
9 11 21 28 27 39 7 10 19 18 28 16 9 -2 16 4 16 13 0 8 -4 15 -9 15 -6 0 -6
12 -1 29 4 16 6 32 2 35 -3 3 1 6 8 6 7 0 11 3 7 6 -3 3 6 17 20 30 15 14 23
30 19 39 -7 19 3 47 15 39 5 -3 9 0 9 6 0 6 7 18 15 26 17 17 21 49 5 39 -6
-3 -7 1 -4 9 3 9 10 16 15 16 5 0 8 5 7 12 -2 7 3 12 10 13 14 0 41 41 42 63
0 7 -4 10 -10 7 -6 -3 -7 1 -4 9 7 19 20 21 27 4 3 -7 3 1 0 19 -4 26 -1 34
21 48 25 16 28 16 45 1 9 -9 20 -15 22 -14 2 2 -2 -3 -10 -9 -18 -15 -7 -16
36 -4 24 7 35 6 40 -3 13 -21 162 -28 193 -10 25 15 25 15 1 8 -16 -4 -21 -3
-17 5 11 17 66 43 66 31 0 -5 5 -10 11 -10 5 0 8 4 4 10 -9 14 39 41 61 34 16
-5 16 -4 4 5 -13 9 -13 11 2 11 9 0 29 11 43 24 14 13 50 36 80 51 30 14 55
31 55 36 0 5 5 9 11 9 5 0 7 -6 3 -12 -4 -7 4 -2 17 12 13 13 24 27 23 30 -1
8 24 30 34 30 6 0 8 9 5 21 -4 15 0 22 15 26 12 3 24 14 27 24 4 11 18 31 32
45 16 16 23 32 20 45 -3 10 -2 19 2 19 4 0 12 15 19 33 7 19 23 40 37 47 26
14 33 44 13 54 -10 5 -10 7 0 12 6 3 12 17 12 30 0 13 5 24 10 24 17 0 11 57
-6 64 -12 5 -15 14 -9 39 3 17 7 44 8 58 1 15 7 25 12 23 7 -3 9 12 7 38 -2
34 -1 40 8 28 10 -13 11 -12 6 3 -3 10 -6 33 -7 50 l-1 32 -13 -40 c-17 -52
-18 -25 -1 45 9 39 15 49 19 35 3 -11 3 -4 1 15 -3 20 6 96 20 170 14 74 35
191 46 259 12 68 36 187 55 265 18 77 36 179 40 226 7 95 42 341 50 348 3 3 5
-17 6 -44 1 -48 1 -48 9 -14 7 29 15 173 10 190 -1 3 -3 17 -5 31 -2 15 -10
40 -19 56 -8 17 -13 41 -10 54 5 20 4 21 -6 9 -9 -12 -10 -8 -5 17 5 23 2 34
-10 41 -15 8 -15 10 -1 25 9 8 21 17 28 19 10 4 10 8 -1 21 -7 10 -10 17 -6
17 4 0 2 7 -5 15 -7 9 -10 18 -7 22 8 8 -51 93 -70 100 -8 3 -13 13 -10 23 3
13 -1 16 -22 13 -20 -4 -23 -2 -11 6 12 9 11 11 -7 11 -14 0 -23 6 -23 15 0
10 -10 15 -30 15 -17 0 -33 6 -35 13 -8 20 -302 31 -298 10 3 -14 -46 -23 -54
-10 -3 6 -1 7 5 3 8 -5 11 1 9 16 -1 18 2 22 17 20 18 -3 18 -2 5 14 -12 16
-12 17 2 12 9 -4 16 -1 16 8 0 7 -4 11 -8 8 -4 -2 6 23 23 56 16 33 32 60 34
60 3 0 2 -6 -2 -12 -4 -8 -3 -10 2 -5 5 5 10 13 10 18 1 5 3 11 4 14 1 3 3 8
5 13 7 27 26 62 33 62 5 0 15 11 22 25 7 13 17 22 22 19 4 -3 8 4 8 16 0 12
-5 18 -10 15 -6 -4 -5 5 2 19 6 14 15 26 20 26 4 0 8 7 8 16 0 8 4 12 10 9 6
-3 7 1 4 9 -4 11 0 16 11 16 11 0 15 5 12 14 -4 11 -1 13 10 9 12 -5 15 -2 10
10 -4 10 -1 17 6 17 8 0 6 4 -3 10 -10 6 -11 10 -2 10 6 0 11 6 10 13 -2 6 3
11 10 9 8 -1 11 2 8 7 -4 5 -1 21 6 36 8 18 14 22 20 13 6 -10 8 -8 9 5 1 9 3
22 4 27 1 6 3 17 4 25 0 9 12 20 26 25 14 5 25 17 25 25 0 9 -4 14 -9 11 -5
-4 -7 3 -4 14 3 11 9 17 14 14 5 -3 6 2 3 10 -3 9 -1 16 5 16 6 0 8 8 4 18 -5
14 -3 13 11 -3 16 -19 17 -19 10 14 -4 21 -2 36 5 41 7 4 13 20 15 36 2 16 4
34 5 39 1 6 6 3 12 -5 8 -12 9 -11 4 6 -3 13 6 41 25 75 16 30 33 62 36 72 4
9 10 17 15 17 5 0 9 7 9 16 0 8 -4 13 -9 10 -5 -4 -7 3 -4 14 3 11 10 17 16
13 6 -4 8 0 4 10 -3 10 -3 17 1 17 14 0 40 55 57 120 9 35 22 74 28 85 6 11
12 27 13 35 2 8 8 16 14 18 5 2 8 8 4 13 -3 5 -1 9 4 9 6 0 13 16 16 35 4 19
12 35 18 35 5 0 8 6 5 14 -3 8 -1 16 4 18 5 2 11 17 12 33 1 17 5 33 10 36 4
3 10 14 12 25 19 76 33 113 52 134 30 31 38 58 23 75 -9 11 -9 23 -2 45 6 16
9 30 7 30 -3 0 0 12 6 28 6 15 13 40 15 56 2 17 8 32 12 35 4 3 9 22 11 41 2
19 7 43 12 52 5 9 9 26 9 38 0 12 4 19 9 16 18 -11 20 45 21 408 1 269 -2 371
-11 382 -6 7 -9 25 -7 39 3 14 1 25 -4 25 -6 0 -8 15 -6 34 2 19 1 33 -3 30
-4 -2 -10 0 -14 6 -6 9 7 14 28 11 4 0 7 4 7 10 0 6 -9 8 -20 4 -15 -5 -18 -3
-14 9 4 9 1 23 -6 31 -7 8 -10 26 -6 39 3 14 2 27 -3 30 -5 3 -7 15 -4 26 3
11 -1 28 -8 37 -12 15 -12 16 5 10 14 -6 17 -4 12 9 -3 8 -6 27 -6 40 0 14 -4
23 -9 20 -7 -5 -19 67 -24 149 -1 17 -10 41 -19 54 -9 13 -14 29 -11 37 3 8
-2 17 -11 20 -9 3 -13 10 -10 15 3 6 -1 21 -10 34 -9 13 -16 30 -16 37 0 7 -6
25 -14 39 -7 14 -16 42 -20 62 -4 20 -15 41 -25 47 -16 8 -36 60 -32 82 0 4
-10 19 -23 33 -23 25 -43 70 -26 60 5 -3 11 -1 15 5 3 5 -1 10 -9 10 -8 0 -18
9 -21 20 -3 11 -11 20 -16 20 -5 0 -9 5 -9 11 0 5 5 7 10 4 23 -14 7 24 -22
55 -22 22 -29 35 -20 38 10 3 10 8 -2 26 -8 13 -17 43 -21 69 -6 36 -10 44
-23 40 -10 -4 -13 -2 -8 6 4 6 2 19 -5 28 -8 9 -14 21 -15 27 0 6 -2 20 -2 32
-1 12 -13 33 -27 48 -14 15 -23 31 -20 36 3 5 -5 12 -19 16 -14 3 -31 13 -38
22 -10 12 -10 14 0 8 6 -4 12 -3 12 2 0 11 -62 67 -75 67 -5 0 -10 5 -10 10
-1 6 -5 20 -9 33 -6 19 -10 21 -22 11 -12 -10 -15 -10 -12 2 2 8 -3 13 -11 11
-8 -2 -11 3 -8 12 4 10 1 13 -9 9 -7 -3 -14 0 -14 6 0 7 -22 33 -50 58 -27 25
-47 50 -44 55 3 4 0 7 -6 6 -7 -2 -17 6 -23 17 -7 11 -16 23 -22 27 -6 5 -5 8
3 8 10 0 10 3 0 14 -7 8 -17 13 -23 13 -5 -1 -9 7 -8 19 2 18 -2 20 -25 16
-15 -3 -24 -2 -21 2 8 9 -30 50 -53 59 -10 3 -18 12 -18 19 0 9 3 9 12 0 7 -7
19 -12 28 -12 8 1 1 9 -16 18 -17 9 -30 23 -28 30 1 7 0 8 -3 2 -7 -15 -23
-12 -23 5 0 8 -4 15 -10 15 -5 0 -6 8 -3 18 6 15 5 15 -11 3 -9 -8 -16 -10
-14 -4 2 6 0 10 -3 10 -12 -3 -48 35 -46 47 1 6 -4 10 -12 8 -12 -3 -12 -1 0
14 12 16 12 17 -3 11 -10 -3 -18 -3 -18 1 0 5 -7 17 -16 28 -8 10 -12 12 -8 4
4 -8 -6 -2 -24 15 -18 16 -32 34 -32 38 0 4 -11 18 -25 31 -14 13 -25 28 -25
34 0 6 -7 9 -15 6 -8 -4 -15 -1 -15 5 0 6 -8 11 -17 12 -11 0 -13 3 -5 6 6 2
10 9 7 13 -3 5 -12 7 -19 4 -7 -3 -16 2 -19 10 -4 9 -11 16 -17 16 -6 0 -24
14 -40 30 -17 17 -30 25 -30 18 0 -8 -5 -6 -11 5 -5 9 -16 17 -24 17 -8 0 -17
4 -20 10 -3 6 2 8 12 5 10 -3 6 0 -8 7 -14 7 -24 18 -22 25 3 7 -4 9 -18 6
-14 -4 -20 -2 -15 5 7 11 -35 45 -72 56 -13 4 -19 12 -16 18 5 7 2 9 -7 6 -8
-3 -23 0 -33 8 -15 11 -17 16 -7 28 10 12 6 14 -21 13 -25 -2 -35 3 -43 21 -5
12 -18 25 -27 28 -10 3 -18 11 -18 19 0 7 -8 15 -17 19 -41 13 -86 54 -77 68
3 4 -2 5 -11 2 -11 -5 -18 0 -22 15 -3 12 -13 21 -24 21 -10 0 -37 18 -61 40
-24 22 -46 40 -50 40 -4 0 -10 9 -13 20 -4 11 -10 18 -15 15 -5 -3 -11 -1 -14
4 -3 5 -14 7 -25 4 -12 -3 -24 3 -34 17 -8 12 -18 17 -21 12 -3 -6 0 -13 6
-15 8 -3 8 -6 2 -6 -16 -1 -77 42 -82 59 -3 8 10 2 28 -13 40 -34 53 -28 14 7
-20 18 -36 24 -53 20 -28 -6 -75 22 -67 41 2 7 -6 21 -20 29 -20 14 -24 14
-24 2 0 -27 -17 -25 -46 5 -16 17 -24 30 -19 29 20 -4 35 0 35 11 0 7 -7 8
-17 4 -38 -16 -56 -18 -49 -7 6 10 -43 26 -79 27 -5 0 -13 4 -16 8 -3 4 -16 9
-27 10 -12 1 -22 4 -22 8 0 6 -47 31 -67 35 -7 1 -27 13 -45 26 -18 12 -34 21
-35 18 -1 -3 -12 3 -23 13 -11 9 -28 17 -38 17 -13 0 -14 2 -4 9 11 7 10 10
-3 15 -23 8 -27 8 -21 -3 4 -5 -5 -4 -19 2 -14 7 -25 15 -25 19 0 4 -7 5 -15
2 -8 -4 -21 -2 -28 4 -6 5 -32 13 -57 17 -25 4 -50 11 -56 16 -6 5 -27 10 -47
11 -20 2 -37 6 -37 11 0 4 -9 7 -20 7 -11 0 -20 4 -20 8 0 5 -16 8 -35 7 -19
-1 -35 2 -35 6 0 5 -7 9 -16 9 -9 0 -12 5 -8 12 5 8 2 9 -9 5 -10 -3 -17 -2
-17 2 0 5 -9 7 -20 4 -11 -3 -26 -1 -33 5 -6 5 -30 12 -52 15 -22 3 -53 10
-68 16 -15 6 -27 8 -27 5 0 -2 -12 2 -27 9 -16 8 -50 14 -77 13 -30 -1 -50 4
-53 12 -3 6 -22 12 -42 12 -27 0 -32 -3 -21 -10 13 -8 13 -10 -1 -10 -9 0 -19
3 -22 7 -4 4 -26 7 -50 8 -74 3 -87 5 -87 15 0 6 10 11 23 11 17 1 18 2 4 6
-10 3 -24 0 -31 -6 -14 -12 -58 -3 -50 10 7 13 -37 11 -76 -2 -25 -9 -34 -9
-40 1 -5 8 -19 11 -39 7 -17 -4 -31 -3 -31 2 0 12 -117 23 -213 21 -53 -1 -88
4 -109 14 -17 9 -51 16 -75 16 -23 0 -43 5 -43 10 0 6 -3 9 -7 9 -5 -1 -48 -5
-98 -9z m201 -35 c18 -13 16 -14 -21 -15 -45 0 -85 9 -85 19 0 13 87 10 106
-4z m507 -52 c-7 -2 -21 -2 -30 0 -10 3 -4 5 12 5 17 0 24 -2 18 -5z m1461
-428 c6 -17 4 -18 -18 -9 -20 8 -21 24 -2 24 8 0 16 -7 20 -15z m-4634 -159
c0 -2 -8 -10 -17 -17 -16 -13 -17 -12 -4 4 13 16 21 21 21 13z m5028 -61 c-3
-3 -9 2 -12 12 -6 14 -5 15 5 6 7 -7 10 -15 7 -18z m1767 -1835 c3 -6 -1 -7
-9 -4 -18 7 -21 14 -7 14 6 0 13 -4 16 -10z m236 -2313 c-1 -4 -1 -14 -1 -22
0 -8 -3 -15 -7 -15 -5 0 -8 11 -8 25 0 14 4 24 8 22 5 -1 8 -6 8 -10z m-9358
-1762 c-3 -9 -8 -14 -10 -11 -3 3 -2 9 2 15 9 16 15 13 8 -4z m9114 -692 c-3
-10 -5 -4 -5 12 0 17 2 24 5 18 2 -7 2 -21 0 -30z m-247 -1673 c0 -5 -4 -10
-10 -10 -5 0 -10 5 -10 10 0 6 5 10 10 10 6 0 10 -4 10 -10z m-1624 -2041
c-18 -41 -21 -26 -4 22 6 18 13 29 15 23 2 -6 -3 -26 -11 -45z m-6199 -296
c-2 -21 -4 -6 -4 32 0 39 2 55 4 38 2 -18 2 -50 0 -70z m6070 -345 c-3 -7 -5
-2 -5 12 0 14 2 19 5 13 2 -7 2 -19 0 -25z m-9047 -2273 c0 -11 -29 -11 -33
-1 -4 10 1 12 14 9 10 -3 19 -7 19 -8z m-852 -362 c-6 -7 -12 -13 -13 -13 -2
0 -5 6 -8 13 -3 7 3 13 14 13 13 0 15 -3 7 -13z m-598 -278 c0 -12 -19 -12
-23 0 -4 9 -1 12 9 8 7 -3 14 -7 14 -8z m-470 -200 c0 -11 -29 -11 -33 -1 -4
10 1 12 14 9 10 -3 19 -7 19 -8z m17855 -755 c3 -6 -1 -7 -9 -4 -18 7 -21 14
-7 14 6 0 13 -4 16 -10z m145 -70 c8 -5 11 -10 5 -10 -5 0 -17 5 -25 10 -8 5
-10 10 -5 10 6 0 17 -5 25 -10z m811 -427 c13 -16 12 -17 -3 -4 -10 7 -18 15
-18 17 0 8 8 3 21 -13z m169 -288 c0 -8 -2 -15 -4 -15 -2 0 -6 7 -10 15 -3 8
-1 15 4 15 6 0 10 -7 10 -15z m-22613 -727 c-3 -8 -6 -5 -6 6 -1 11 2 17 5 13
3 -3 4 -12 1 -19z m22820 -290 c-3 -8 -6 -5 -6 6 -1 11 2 17 5 13 3 -3 4 -12
1 -19z m120 -560 c-3 -8 -6 -5 -6 6 -1 11 2 17 5 13 3 -3 4 -12 1 -19z
m-24477 -5683 c0 -12 -19 -12 -23 0 -4 9 -1 12 9 8 7 -3 14 -7 14 -8z m25707
-47 c-3 -7 -5 -2 -5 12 0 14 2 19 5 13 2 -7 2 -19 0 -25z m116 -588 c3 -11 2
-20 -3 -20 -4 0 -10 9 -13 20 -3 11 -2 20 3 20 4 0 10 -9 13 -20z m-4436
-5282 c-3 -7 -5 -2 -5 12 0 14 2 19 5 13 2 -7 2 -19 0 -25z m-16707 -5 c-1
-24 -2 -26 -11 -10 -5 9 -7 22 -4 27 10 17 15 11 15 -17z"/>
<path d="M17608 32043 c12 -2 30 -2 40 0 9 3 -1 5 -23 4 -22 0 -30 -2 -17 -4z"/>
<path d="M18356 31961 c-3 -4 6 -6 19 -3 14 2 25 6 25 8 0 8 -39 4 -44 -5z"/>
<path d="M18415 31960 c-3 -6 1 -7 9 -4 18 7 21 14 7 14 -6 0 -13 -4 -16 -10z"/>
<path d="M18560 31930 c-13 -8 -12 -10 3 -10 9 0 17 5 17 10 0 12 -1 12 -20 0z"/>
<path d="M19110 31766 c0 -2 7 -6 15 -10 8 -3 15 -1 15 4 0 6 -7 10 -15 10 -8
0 -15 -2 -15 -4z"/>
<path d="M15088 31523 c6 -2 9 -10 6 -15 -4 -7 -2 -8 4 -4 18 11 14 26 -5 25
-11 0 -13 -3 -5 -6z"/>
<path d="M20010 31277 c0 -10 8 -17 18 -17 9 0 13 4 7 8 -5 4 -13 11 -17 16
-5 5 -8 2 -8 -7z"/>
<path d="M14590 31276 c0 -2 7 -7 16 -10 8 -3 12 -2 9 4 -6 10 -25 14 -25 6z"/>
<path d="M20250 31077 c0 -10 8 -17 18 -17 9 0 13 4 7 8 -5 4 -13 11 -17 16
-5 5 -8 2 -8 -7z"/>
<path d="M13766 30811 c-4 -5 -2 -12 3 -15 5 -4 12 -2 15 3 4 5 2 12 -3 15 -5
4 -12 2 -15 -3z"/>
<path d="M13740 30764 c0 -8 5 -12 10 -9 6 4 8 11 5 16 -9 14 -15 11 -15 -7z"/>
<path d="M20890 30525 c0 -2 6 -8 13 -14 10 -8 14 -7 14 2 0 8 -6 14 -14 14
-7 0 -13 -1 -13 -2z"/>
<path d="M21170 30230 c0 -5 5 -10 11 -10 5 0 7 5 4 10 -3 6 -8 10 -11 10 -2
0 -4 -4 -4 -10z"/>
<path d="M12890 29474 c0 -8 5 -12 10 -9 6 3 10 10 10 16 0 5 -4 9 -10 9 -5 0
-10 -7 -10 -16z"/>
<path d="M21906 28953 c-6 -14 -5 -15 5 -6 7 7 10 15 7 18 -3 3 -9 -2 -12 -12z"/>
<path d="M12840 27420 c0 -5 5 -10 10 -10 6 0 10 5 10 10 0 6 -4 10 -10 10 -5
0 -10 -4 -10 -10z"/>
<path d="M21946 27347 c3 -10 9 -15 12 -12 3 3 0 11 -7 18 -10 9 -11 8 -5 -6z"/>
<path d="M21080 25370 c0 -5 5 -10 11 -10 5 0 7 5 4 10 -3 6 -8 10 -11 10 -2
0 -4 -4 -4 -10z"/>
<path d="M21660 24470 c0 -59 1 -60 21 -48 12 7 30 18 41 24 18 11 17 12 -11
22 -24 8 -31 17 -31 36 0 15 -4 26 -10 26 -6 0 -10 -27 -10 -60z"/>
<path d="M21641 24264 c0 -11 3 -14 6 -6 3 7 2 16 -1 19 -3 4 -6 -2 -5 -13z"/>
<path d="M21620 24141 c0 -6 5 -13 10 -16 6 -3 10 1 10 9 0 9 -4 16 -10 16 -5
0 -10 -4 -10 -9z"/>
<path d="M21580 23986 c0 -8 5 -18 10 -21 6 -3 10 1 10 9 0 8 -4 18 -10 21 -5
3 -10 -1 -10 -9z"/>
<path d="M21571 23933 c-1 -6 -4 -20 -7 -30 -5 -17 -5 -17 6 0 6 10 9 23 6 30
-3 9 -5 9 -5 0z"/>
<path d="M21542 23810 c0 -14 2 -19 5 -12 2 6 2 18 0 25 -3 6 -5 1 -5 -13z"/>
<path d="M21471 23573 c0 -12 -4 -30 -7 -40 -5 -14 -4 -15 5 -7 7 6 11 24 8
40 -3 21 -4 23 -6 7z"/>
<path d="M12682 23061 c2 -7 7 -12 11 -12 12 1 9 15 -3 20 -7 2 -11 -2 -8 -8z"/>
<path d="M21351 22864 c0 -11 3 -14 6 -6 3 7 2 16 -1 19 -3 4 -6 -2 -5 -13z"/>
<path d="M20595 22364 c9 -9 18 -14 21 -11 9 9 -6 27 -22 27 -13 0 -13 -2 1
-16z"/>
<path d="M20285 21900 c-3 -5 -1 -10 4 -10 6 0 11 5 11 10 0 6 -2 10 -4 10 -3
0 -8 -4 -11 -10z"/>
<path d="M20110 21620 c0 -5 7 -10 15 -10 8 0 15 5 15 10 0 6 -7 10 -15 10 -8
0 -15 -4 -15 -10z"/>
<path d="M19787 20883 c-10 -10 -8 -66 3 -83 7 -11 10 0 10 38 0 53 -1 57 -13
45z"/>
<path d="M19711 20674 c0 -11 3 -14 6 -6 3 7 2 16 -1 19 -3 4 -6 -2 -5 -13z"/>
<path d="M20528 18843 c7 -3 16 -2 19 1 4 3 -2 6 -13 5 -11 0 -14 -3 -6 -6z"/>
<path d="M11965 18630 c3 -5 10 -10 16 -10 5 0 9 5 9 10 0 6 -7 10 -16 10 -8
0 -12 -4 -9 -10z"/>
<path d="M21110 18486 c0 -2 7 -6 15 -10 8 -3 15 -1 15 4 0 6 -7 10 -15 10 -8
0 -15 -2 -15 -4z"/>
<path d="M21375 18400 c-3 -5 1 -10 9 -10 9 0 16 5 16 10 0 6 -4 10 -9 10 -6
0 -13 -4 -16 -10z"/>
<path d="M21848 18253 c7 -3 16 -2 19 1 4 3 -2 6 -13 5 -11 0 -14 -3 -6 -6z"/>
<path d="M21951 18234 c0 -11 3 -14 6 -6 3 7 2 16 -1 19 -3 4 -6 -2 -5 -13z"/>
<path d="M22028 18203 c7 -3 16 -2 19 1 4 3 -2 6 -13 5 -11 0 -14 -3 -6 -6z"/>
<path d="M22070 18200 c-13 -8 -13 -10 2 -10 9 0 25 -3 35 -7 16 -6 16 -5 4
10 -16 20 -20 20 -41 7z"/>
<path d="M22152 18160 c10 -6 25 -7 40 -1 20 9 18 10 -17 10 -31 0 -36 -2 -23
-9z"/>
<path d="M22385 18080 c-2 -3 7 -7 20 -8 13 -1 26 2 29 7 3 5 -6 8 -20 7 -14
0 -27 -3 -29 -6z"/>
<path d="M22485 18037 c17 -8 32 -13 34 -11 7 7 -3 12 -34 19 l-30 6 30 -14z"/>
<path d="M22680 17967 c3 -2 27 -12 55 -21 39 -13 46 -13 35 -2 -8 7 -33 17
-55 21 -22 4 -38 5 -35 2z"/>
<path d="M22820 17916 c0 -2 9 -6 20 -9 11 -3 18 -1 14 4 -5 9 -34 13 -34 5z"/>
<path d="M22920 17873 c8 -3 22 -9 31 -14 11 -5 16 -3 16 7 0 9 -11 14 -31 13
-17 0 -24 -3 -16 -6z"/>
<path d="M23019 17830 c45 -21 62 -22 38 -1 -8 6 -29 13 -48 16 -33 5 -33 5
10 -15z"/>
<path d="M9800 17799 c0 -5 5 -7 10 -4 6 3 10 8 10 11 0 2 -4 4 -10 4 -5 0
-10 -5 -10 -11z"/>
<path d="M23090 17800 c8 -5 22 -10 31 -10 9 0 22 -7 29 -15 7 -8 17 -15 22
-15 12 0 -12 24 -39 38 -12 7 -30 12 -40 12 -15 0 -16 -2 -3 -10z"/>
<path d="M23198 17753 c7 -3 16 -2 19 1 4 3 -2 6 -13 5 -11 0 -14 -3 -6 -6z"/>
<path d="M23290 17716 c0 -2 7 -6 15 -10 8 -3 15 -1 15 4 0 6 -7 10 -15 10 -8
0 -15 -2 -15 -4z"/>
<path d="M23360 17683 c8 -3 22 -11 30 -17 13 -10 13 -9 1 7 -7 9 -21 17 -30
16 -13 0 -14 -1 -1 -6z"/>
<path d="M23450 17640 c8 -5 20 -10 25 -10 6 0 3 5 -5 10 -8 5 -19 10 -25 10
-5 0 -3 -5 5 -10z"/>
<path d="M23550 17600 c8 -5 22 -10 30 -10 13 0 13 1 0 10 -8 5 -22 10 -30 10
-13 0 -13 -1 0 -10z"/>
<path d="M23610 17576 c0 -2 7 -7 16 -10 8 -3 12 -2 9 4 -6 10 -25 14 -25 6z"/>
<path d="M23661 17556 c2 -1 18 -8 35 -13 24 -9 31 -8 31 3 0 9 -12 14 -35 14
-20 0 -33 -2 -31 -4z"/>
<path d="M8965 17400 c3 -5 11 -10 16 -10 6 0 7 5 4 10 -3 6 -11 10 -16 10 -6
0 -7 -4 -4 -10z"/>
<path d="M8840 17359 c0 -5 5 -7 10 -4 6 3 10 8 10 11 0 2 -4 4 -10 4 -5 0
-10 -5 -10 -11z"/>
<path d="M24198 17363 c7 -3 16 -2 19 1 4 3 -2 6 -13 5 -11 0 -14 -3 -6 -6z"/>
<path d="M24575 17230 c3 -5 8 -10 11 -10 2 0 4 5 4 10 0 6 -5 10 -11 10 -5 0
-7 -4 -4 -10z"/>
<path d="M25707 16809 c7 -7 15 -10 18 -7 3 3 -2 9 -12 12 -14 6 -15 5 -6 -5z"/>
<path d="M25768 16788 c9 -9 15 -9 24 0 9 9 7 12 -12 12 -19 0 -21 -3 -12 -12z"/>
<path d="M25833 16759 c11 -7 23 -7 35 0 14 9 11 10 -18 10 -29 0 -32 -1 -17
-10z"/>
<path d="M26027 16689 c7 -7 15 -10 18 -7 3 3 -2 9 -12 12 -14 6 -15 5 -6 -5z"/>
<path d="M5960 16679 c0 -5 5 -7 10 -4 6 3 10 8 10 11 0 2 -4 4 -10 4 -5 0
-10 -5 -10 -11z"/>
<path d="M5882 16645 c-11 -12 -10 -15 3 -15 8 0 15 7 15 15 0 18 -2 18 -18 0z"/>
<path d="M26733 16436 c0 -7 6 -13 14 -13 7 0 13 4 13 8 0 4 -6 9 -13 12 -8 3
-14 0 -14 -7z"/>
<path d="M5405 16400 c3 -5 8 -10 11 -10 2 0 4 5 4 10 0 6 -5 10 -11 10 -5 0
-7 -4 -4 -10z"/>
<path d="M27220 16250 c14 -4 34 -8 45 -8 16 0 15 2 -5 8 -14 4 -34 8 -45 8
-16 0 -15 -2 5 -8z"/>
<path d="M27300 16240 c0 -5 5 -10 11 -10 5 0 7 5 4 10 -3 6 -8 10 -11 10 -2
0 -4 -4 -4 -10z"/>
<path d="M27310 16214 c0 -10 28 -34 41 -34 7 0 2 9 -11 20 -24 21 -30 24 -30
14z"/>
<path d="M27370 16157 c0 -10 8 -17 18 -17 9 0 13 4 7 8 -5 4 -13 11 -17 16
-5 5 -8 2 -8 -7z"/>
<path d="M27550 15971 c0 -5 5 -13 10 -16 6 -3 10 -14 10 -24 0 -10 6 -18 14
-18 13 0 13 4 0 28 -15 30 -34 46 -34 30z"/>
<path d="M27738 15403 c7 -3 16 -2 19 1 4 3 -2 6 -13 5 -11 0 -14 -3 -6 -6z"/>
<path d="M27780 15279 c0 -13 5 -31 10 -39 7 -11 8 -5 4 20 -8 43 -14 51 -14
19z"/>
<path d="M27791 15184 c0 -11 3 -14 6 -6 3 7 2 16 -1 19 -3 4 -6 -2 -5 -13z"/>
<path d="M27815 15118 c-3 -7 -1 -26 4 -43 9 -29 9 -29 10 13 1 41 -5 54 -14
30z"/>
<path d="M27831 15024 c0 -11 3 -14 6 -6 3 7 2 16 -1 19 -3 4 -6 -2 -5 -13z"/>
<path d="M27840 14987 c0 -7 7 -22 15 -33 13 -17 14 -16 4 14 -11 33 -19 41
-19 19z"/>
<path d="M27860 14910 c0 -11 2 -20 4 -20 2 0 6 9 9 20 3 11 1 20 -4 20 -5 0
-9 -9 -9 -20z"/>
<path d="M27944 14425 c3 -21 16 -31 16 -12 0 9 -4 18 -9 21 -5 4 -8 -1 -7 -9z"/>
<path d="M27980 14380 c0 -5 5 -10 11 -10 5 0 7 5 4 10 -3 6 -8 10 -11 10 -2
0 -4 -4 -4 -10z"/>
<path d="M28048 13968 c7 -7 12 -22 12 -35 0 -38 15 -26 17 14 1 26 -1 33 -7
23 -7 -10 -10 -11 -10 -2 0 6 -5 12 -12 12 -9 0 -9 -3 0 -12z"/>
<path d="M28082 13870 c0 -14 2 -19 5 -12 2 6 2 18 0 25 -3 6 -5 1 -5 -13z"/>
<path d="M28096 13810 c4 -19 10 -42 15 -50 15 -27 10 22 -6 55 l-15 30 6 -35z"/>
<path d="M28136 13691 c-8 -13 3 -79 14 -86 7 -4 2 85 -5 93 -2 2 -6 -1 -9 -7z"/>
<path d="M28161 13544 c0 -11 3 -14 6 -6 3 7 2 16 -1 19 -3 4 -6 -2 -5 -13z"/>
<path d="M28180 13485 c0 -27 3 -46 6 -42 3 3 6 22 6 42 0 20 -3 39 -6 42 -3
4 -6 -15 -6 -42z"/>
<path d="M4680 13425 c0 -14 2 -25 4 -25 2 0 6 11 8 25 3 14 1 25 -3 25 -5 0
-9 -11 -9 -25z"/>
<path d="M4650 13315 c0 -14 4 -25 9 -25 4 0 6 11 3 25 -2 14 -6 25 -8 25 -2
0 -4 -11 -4 -25z"/>
<path d="M28220 13280 c0 -5 5 -10 11 -10 5 0 7 5 4 10 -3 6 -8 10 -11 10 -2
0 -4 -4 -4 -10z"/>
<path d="M28246 13165 c4 -8 8 -15 10 -15 2 0 4 7 4 15 0 8 -4 15 -10 15 -5 0
-7 -7 -4 -15z"/>
<path d="M28266 13133 c-6 -14 -5 -15 5 -6 7 7 10 15 7 18 -3 3 -9 -2 -12 -12z"/>
<path d="M28268 13073 c6 -65 10 -70 11 -15 0 28 -3 52 -7 52 -4 0 -6 -17 -4
-37z"/>
<path d="M28317 12460 c6 -22 23 -38 23 -21 0 17 -12 41 -20 41 -5 0 -6 -9 -3
-20z"/>
<path d="M4442 12383 c-1 -22 0 -24 8 -13 12 18 13 40 2 40 -4 0 -9 -12 -10
-27z"/>
<path d="M28340 12386 c0 -14 3 -27 8 -29 4 -3 7 8 7 24 0 16 -3 29 -7 29 -5
0 -8 -11 -8 -24z"/>
<path d="M28368 12277 c5 -7 12 -21 14 -32 3 -15 5 -12 9 11 4 24 1 30 -14 31
-13 1 -16 -2 -9 -10z"/>
<path d="M28395 12168 c4 -18 11 -40 17 -48 6 -10 7 -3 2 20 -4 19 -7 41 -7
48 0 6 -4 12 -9 12 -6 0 -6 -14 -3 -32z"/>
<path d="M4361 12124 c0 -11 3 -14 6 -6 3 7 2 16 -1 19 -3 4 -6 -2 -5 -13z"/>
<path d="M28424 12083 c4 -12 9 -31 11 -44 2 -12 7 -24 11 -28 11 -10 -7 73
-18 84 -7 7 -8 3 -4 -12z"/>
<path d="M28451 11974 c0 -11 3 -14 6 -6 3 7 2 16 -1 19 -3 4 -6 -2 -5 -13z"/>
<path d="M28472 11890 c0 -14 2 -19 5 -12 2 6 2 18 0 25 -3 6 -5 1 -5 -13z"/>
<path d="M4120 11310 c0 -5 5 -10 10 -10 6 0 10 5 10 10 0 6 -4 10 -10 10 -5
0 -10 -4 -10 -10z"/>
<path d="M28658 11113 c-2 -10 -1 -29 3 -43 6 -20 7 -17 8 18 1 44 -4 54 -11
25z"/>
<path d="M28712 10915 c0 -16 2 -22 5 -12 2 9 2 23 0 30 -3 6 -5 -1 -5 -18z"/>
<path d="M3870 10450 c0 -6 7 -10 15 -10 8 0 15 2 15 4 0 2 -7 6 -15 10 -8 3
-15 1 -15 -4z"/>
<path d="M28979 9704 c4 -16 6 -36 4 -44 -4 -13 -3 -13 5 -1 12 16 7 50 -8 65
-6 6 -7 0 -1 -20z"/>
<path d="M29020 9505 c0 -14 4 -25 9 -25 4 0 6 11 3 25 -2 14 -6 25 -8 25 -2
0 -4 -11 -4 -25z"/>
<path d="M29057 9357 c-4 -10 -7 -26 -7 -35 1 -15 2 -15 11 1 6 10 9 25 7 35
-3 16 -4 15 -11 -1z"/>
<path d="M29074 9257 c2 -21 7 -41 10 -44 9 -9 6 27 -5 57 -7 21 -8 18 -5 -13z"/>
<path d="M29093 9164 c-3 -8 -1 -25 5 -37 10 -20 11 -18 11 16 1 39 -5 48 -16
21z"/>
<path d="M29110 9074 c0 -10 5 -26 10 -34 8 -11 9 -7 4 15 -8 37 -14 45 -14
19z"/>
<path d="M29396 7520 c8 -43 14 -51 14 -19 0 13 -5 31 -10 39 -7 11 -8 5 -4
-20z"/>
<path d="M29461 7044 c0 -11 3 -14 6 -6 3 7 2 16 -1 19 -3 4 -6 -2 -5 -13z"/>
<path d="M29471 7004 c0 -11 3 -14 6 -6 3 7 2 16 -1 19 -3 4 -6 -2 -5 -13z"/>
<path d="M29511 6694 c0 -11 3 -14 6 -6 3 7 2 16 -1 19 -3 4 -6 -2 -5 -13z"/>
<path d="M29552 6550 c0 -14 2 -19 5 -12 2 6 2 18 0 25 -3 6 -5 1 -5 -13z"/>
<path d="M8000 3523 c0 -6 8 -17 18 -24 16 -13 16 -13 2 6 -8 11 -16 22 -17
24 -2 2 -3 0 -3 -6z"/>
<path d="M8056 3377 c3 -10 9 -15 12 -12 3 3 0 11 -7 18 -10 9 -11 8 -5 -6z"/>
<path d="M8120 3175 c0 -14 4 -25 9 -25 4 0 6 11 3 25 -2 14 -6 25 -8 25 -2 0
-4 -11 -4 -25z"/>
<path d="M8162 2880 c0 -19 2 -27 5 -17 2 9 2 25 0 35 -3 9 -5 1 -5 -18z"/>
<path d="M8160 2628 c0 -19 2 -20 10 -8 13 19 13 30 0 30 -5 0 -10 -10 -10
-22z"/>
<path d="M24901 2464 c0 -11 3 -14 6 -6 3 7 2 16 -1 19 -3 4 -6 -2 -5 -13z"/>
</g>
</svg>
