<svg width="60" height="60" viewBox="0 0 150 150" fill="none" xmlns="http://www.w3.org/2000/svg">
<path d="M84.7955 56.4545H94.6364V86.6818C94.6364 90.0758 93.8258 93.0455 92.2045 95.5909C90.5985 98.1364 88.3485 100.121 85.4545 101.545C82.5606 102.955 79.1894 103.659 75.3409 103.659C71.4773 103.659 68.0985 102.955 65.2045 101.545C62.3106 100.121 60.0606 98.1364 58.4545 95.5909C56.8485 93.0455 56.0455 90.0758 56.0455 86.6818V56.4545H65.8864V85.8409C65.8864 87.6136 66.2727 89.1894 67.0455 90.5682C67.8333 91.947 68.9394 93.0303 70.3636 93.8182C71.7879 94.6061 73.447 95 75.3409 95C77.25 95 78.9091 94.6061 80.3182 93.8182C81.7424 93.0303 82.8409 91.947 83.6136 90.5682C84.4015 89.1894 84.7955 87.6136 84.7955 85.8409V56.4545Z" fill="#00A884"/>
<g filter="url(#filter0_b_150_6)">
<path d="M82.5 10.1036L127.452 36.0566C132.093 38.7361 134.952 43.688 134.952 49.047V100.953C134.952 106.312 132.093 111.264 127.452 113.943L82.5 139.896C77.859 142.576 72.141 142.576 67.5 139.896L22.5481 113.943C17.9071 111.264 15.0481 106.312 15.0481 100.953V49.047C15.0481 43.688 17.9071 38.7361 22.5481 36.0566L67.5 10.1036C72.141 7.42414 77.859 7.42414 82.5 10.1036Z" stroke="#00A884" stroke-width="10"/>
</g>
<defs>
<filter id="filter0_b_150_6" x="6.04785" y="-0.906006" width="137.904" height="151.812" filterUnits="userSpaceOnUse" color-interpolation-filters="sRGB">
<feFlood flood-opacity="0" result="BackgroundImageFix"/>
<feGaussianBlur in="BackgroundImageFix" stdDeviation="2"/>
<feComposite in2="SourceAlpha" operator="in" result="effect1_backgroundBlur_150_6"/>
<feBlend mode="normal" in="SourceGraphic" in2="effect1_backgroundBlur_150_6" result="shape"/>
</filter>
</defs>
</svg>
